<?xml version="1.0" encoding="utf-8"?>
<!-- Generator: Adobe Illustrator 23.0.4, SVG Export Plug-In . SVG Version: 6.00 Build 0)  -->
<svg version="1.1" id="Logo" xmlns="http://www.w3.org/2000/svg" xmlns:xlink="http://www.w3.org/1999/xlink" x="0px" y="0px"
	 viewBox="0 0 25 25" style="enable-background:new 0 0 25 25;" xml:space="preserve">
<g>
	<path d="M12.5,13.9c3.5,0,6.4-2.9,6.4-6.4S16,1.2,12.5,1.2S6.1,4,6.1,7.5S9,13.9,12.5,13.9z M12.5,2.8c2.6,0,4.7,2.1,4.7,4.7
		s-2.1,4.7-4.7,4.7s-4.7-2.1-4.7-4.7S9.9,2.8,12.5,2.8z"/>
	<path d="M1.5,23.8h22.1c0.5,0,0.8-0.3,0.8-0.8c0-4.4-3.6-8-8-8H8.6c-4.4,0-8,3.6-8,8C0.7,23.4,1,23.8,1.5,23.8z M8.6,16.6h7.8
		c3.2,0,5.9,2.4,6.2,5.5H2.3C2.7,19.1,5.4,16.6,8.6,16.6z"/>
</g>
</svg>
