<?xml version="1.0" encoding="utf-8"?>
<!-- Generator: Adobe Illustrator 23.0.3, SVG Export Plug-In . SVG Version: 6.00 Build 0)  -->
<svg version="1.1" id="Logo" xmlns="http://www.w3.org/2000/svg" xmlns:xlink="http://www.w3.org/1999/xlink" x="0px" y="0px"
	 viewBox="0 0 25 25" style="enable-background:new 0 0 25 25;" xml:space="preserve">
<g>
	<path d="M11.1,17.4c-0.8,0-1.5,0.7-1.5,1.5s0.7,1.5,1.5,1.5s1.5-0.7,1.5-1.5S12,17.4,11.1,17.4z M11.1,19.5c-0.4,0-0.7-0.2-0.7-0.7
		c0-0.4,0.2-0.7,0.7-0.7c0.4,0,0.7,0.2,0.7,0.7S11.5,19.5,11.1,19.5z"/>
	<path d="M10.8,10.3h6c0.2,0,0.4-0.2,0.4-0.4c0-0.2-0.2-0.4-0.4-0.4h-6c-0.2,0-0.4,0.2-0.4,0.4C10.3,10.1,10.5,10.3,10.8,10.3z"/>
	<path d="M16.5,11.6h-5.3c-0.2,0-0.4,0.2-0.4,0.4s0.2,0.4,0.4,0.4h5.3c0.2,0,0.4-0.2,0.4-0.4C16.9,11.8,16.7,11.6,16.5,11.6z"/>
	<path d="M20.4,7.3H7.2l0,0L6.9,6C6.9,5.8,6.6,5.5,6.4,5.4L4.5,4.6C4.4,4.6,4.1,4.6,4,4.9C4,5.1,4,5.3,4.2,5.4l1.9,0.7l0,0l2,9.8
		c0.1,0.4,0.4,0.7,0.8,0.7h10c0.2,0,0.4-0.2,0.4-0.4c0-0.2-0.2-0.4-0.4-0.4H9l0,0l-0.2-1.2l0,0H19c0.4,0,0.7-0.2,0.8-0.7l0.7-4l0,0
		L21,8C21.1,7.7,20.8,7.3,20.4,7.3z M8.5,13.8L7.4,8.1l0,0c0.1,0,2.5,0,2.5,0h10.3l0,0l-0.6,3.2l0,0l-0.5,2.5l0,0H8.5L8.5,13.8z"/>
	<path d="M16.4,17.4c-0.8,0-1.5,0.7-1.5,1.5s0.7,1.5,1.5,1.5s1.5-0.7,1.5-1.5S17.2,17.4,16.4,17.4z M16.4,19.5
		c-0.4,0-0.7-0.2-0.7-0.7c0-0.4,0.2-0.7,0.7-0.7c0.4,0,0.7,0.2,0.7,0.7S16.8,19.5,16.4,19.5z"/>
</g>
</svg>
