<?xml version="1.0" encoding="utf-8"?>
<!-- Generator: Adobe Illustrator 23.0.4, SVG Export Plug-In . SVG Version: 6.00 Build 0)  -->
<svg version="1.1" id="Logo" xmlns="http://www.w3.org/2000/svg" xmlns:xlink="http://www.w3.org/1999/xlink" x="0px" y="0px"
	 viewBox="0 0 25 25" style="enable-background:new 0 0 25 25;" xml:space="preserve">
<g>
	<path d="M10.6,19.1c-1.1,0-2,0.9-2,2c0,1.1,0.9,2,2,2s2-0.9,2-2C12.6,20,11.7,19.1,10.6,19.1z M10.6,21.9c-0.5,0-0.9-0.3-0.9-0.9
		c0-0.5,0.3-0.9,0.9-0.9c0.5,0,0.9,0.3,0.9,0.9S11.1,21.9,10.6,21.9z"/>
	<path d="M10.1,9.7h8c0.3,0,0.6-0.3,0.6-0.6c0-0.3-0.3-0.6-0.6-0.6h-8c-0.3,0-0.6,0.3-0.6,0.6S9.8,9.7,10.1,9.7z"/>
	<path d="M17.7,11.4h-7.1c-0.3,0-0.6,0.3-0.6,0.6c0,0.3,0.3,0.6,0.6,0.6h7.1c0.3,0,0.6-0.3,0.6-0.6C18.3,11.7,18,11.4,17.7,11.4z"/>
	<path d="M22.9,5.7H5.3l0,0L5,3.9C4.9,3.6,4.6,3.3,4.3,3.1l-2.5-1C1.6,2,1.2,2.1,1.1,2.4C1,2.7,1.1,3,1.4,3.1l2.5,1l0,0l2.7,13.1
		c0.1,0.5,0.6,0.9,1.1,0.9h13.3c0.3,0,0.6-0.3,0.6-0.5c0-0.3-0.3-0.6-0.6-0.6H7.7l0,0l-0.3-1.6l0,0h13.7c0.5,0,1-0.3,1.1-0.9l1-5.3
		l0,0l0.5-2.6C23.9,6.2,23.5,5.7,22.9,5.7z M7.1,14.3L5.6,6.7l0,0c0.1,0,3.4,0,3.4,0h13.7l0,0L21.9,11l0,0l-0.7,3.3l0,0H7.1
		L7.1,14.3z"/>
	<path d="M17.6,19.1c-1.1,0-2,0.9-2,2c0,1.1,0.9,2,2,2c1.1,0,2-0.9,2-2C19.6,20,18.7,19.1,17.6,19.1z M17.6,21.9
		c-0.5,0-0.9-0.3-0.9-0.9c0-0.5,0.3-0.9,0.9-0.9c0.6,0,0.9,0.3,0.9,0.9S18.1,21.9,17.6,21.9z"/>
</g>
</svg>
