<?xml version="1.0" encoding="utf-8"?>
<!-- Generator: Adobe Illustrator 23.0.3, SVG Export Plug-In . SVG Version: 6.00 Build 0)  -->
<svg version="1.1" id="Logo" xmlns="http://www.w3.org/2000/svg" xmlns:xlink="http://www.w3.org/1999/xlink" x="0px" y="0px"
	 viewBox="0 0 25 25" style="enable-background:new 0 0 25 25;" xml:space="preserve">
<g>
	<path d="M6.4,9.1h12.2c0.4,0,0.9-0.4,0.9-0.9s-0.4-0.9-0.9-0.9H6.4c-0.4,0-0.9,0.4-0.9,0.9S5.9,9.1,6.4,9.1z"/>
	<path d="M6.4,13.4h12.2c0.4,0,0.9-0.4,0.9-0.9c0-0.4-0.4-0.9-0.9-0.9H6.4c-0.4,0-0.9,0.4-0.9,0.9C5.5,12.9,5.9,13.4,6.4,13.4z"/>
	<path d="M6.4,17.6h12.2c0.4,0,0.9-0.4,0.9-0.9c0-0.4-0.4-0.9-0.9-0.9H6.4c-0.4,0-0.9,0.4-0.9,0.9C5.5,17.2,5.9,17.6,6.4,17.6z"/>
</g>
</svg>
