<?xml version="1.0" encoding="utf-8"?>
<!-- Generator: Adobe Illustrator 23.0.3, SVG Export Plug-In . SVG Version: 6.00 Build 0)  -->
<svg version="1.1" id="Logo" xmlns="http://www.w3.org/2000/svg" xmlns:xlink="http://www.w3.org/1999/xlink" x="0px" y="0px"
	 viewBox="0 0 25 25" style="enable-background:new 0 0 25 25;" xml:space="preserve">
<g>
	<path d="M12.5,13.4c2.3,0,4.2-1.9,4.2-4.2s-1.9-4.1-4.2-4.1S8.3,6.9,8.3,9.2S10.2,13.4,12.5,13.4z M12.5,6.2c1.7,0,3.1,1.4,3.1,3.1
		s-1.4,3.1-3.1,3.1s-3.1-1.4-3.1-3.1S10.8,6.2,12.5,6.2z"/>
	<path d="M5.3,19.9h14.4c0.3,0,0.5-0.2,0.5-0.5c0-2.9-2.4-5.2-5.2-5.2H10c-2.9,0-5.2,2.4-5.2,5.2C4.8,19.6,5,19.9,5.3,19.9z
		 M10,15.2H15c2.1,0,3.9,1.6,4.1,3.6H5.8C6.1,16.8,7.9,15.2,10,15.2z"/>
</g>
</svg>
