<?xml version="1.0" encoding="utf-8"?>
<!-- Generator: Adobe Illustrator 23.0.4, SVG Export Plug-In . SVG Version: 6.00 Build 0)  -->
<svg version="1.1" id="Layer_1" xmlns="http://www.w3.org/2000/svg" xmlns:xlink="http://www.w3.org/1999/xlink" x="0px" y="0px"
	 viewBox="0 0 100 60" style="enable-background:new 0 0 100 60;" xml:space="preserve">
<g>
	<path d="M35.1,22.8H65c1.1,0,2.1-0.9,2.1-2.1s-0.9-2.1-2.1-2.1H35.1c-1.1,0-2.1,0.9-2.1,2.1S33.9,22.8,35.1,22.8z"/>
	<path d="M35.1,33.3H65c1.1,0,2.1-0.9,2.1-2.1c0-1.1-0.9-2.1-2.1-2.1H35.1C34,29.1,33,30,33,31.2C33,32.3,33.9,33.3,35.1,33.3z"/>
	<path d="M35.1,43.8H65c1.1,0,2.1-0.9,2.1-2.1c0-1.1-0.9-2.1-2.1-2.1H35.1c-1.1,0-2.1,0.9-2.1,2.1C33,42.8,33.9,43.8,35.1,43.8z"/>
</g>
</svg>
