<?xml version="1.0" encoding="utf-8"?>
<!-- Generator: Adobe Illustrator 23.0.3, SVG Export Plug-In . SVG Version: 6.00 Build 0)  -->
<svg version="1.1" id="Camada_1" xmlns="http://www.w3.org/2000/svg" xmlns:xlink="http://www.w3.org/1999/xlink" x="0px" y="0px"
	 viewBox="0 0 2092.2 1102" style="enable-background:new 0 0 2092.2 1102;" xml:space="preserve">
<style type="text/css">
	.st0{fill:#840716;}
	.st1{fill:#A00A15;}
	.st2{fill:none;stroke:#FFFFFF;stroke-width:0.75;stroke-miterlimit:10;}
	.st3{fill:#BF0911;}
</style>
<g>
	<polygon class="st0" points="525.4,808.8 3.1,808.8 542.3,16.9 1064.6,16.9 	"/>
	<polygon class="st0" points="1468.9,1095.2 997.1,1095.2 1603.7,202.2 2075.4,202.2 	"/>
	<polygon class="st1" points="1463.8,1082.6 992,1082.6 1598.6,189.6 2070.4,189.6 	"/>
	<polygon class="st0" points="1418.3,994.2 87.2,994.2 575.9,269.6 1907,269.6 	"/>
	<polyline class="st2" points="1574.8,224.3 1979.2,224.3 1431.2,1031.2 1026.8,1031.2 1088.1,941.3 	"/>
	<polygon class="st1" points="520.3,796.2 -2.1,796.2 537.1,4.3 1059.4,4.3 	"/>
	<polygon class="st3" points="1557.2,88.5 950.6,88.5 883.2,189.6 1489.8,189.6 	"/>
	<polygon class="st3" points="907.8,88.5 857.3,88.5 789.9,189.6 840.4,189.6 	"/>
	<polygon class="st3" points="823.6,88.5 773,88.5 705.6,189.6 756.2,189.6 	"/>
	<polygon class="st3" points="739.3,88.5 688.8,88.5 621.4,189.6 671.9,189.6 	"/>
	<polygon class="st3" points="655.1,88.5 604.5,88.5 537.1,189.6 587.7,189.6 	"/>
	<polygon class="st3" points="570.8,88.5 520.3,88.5 452.9,189.6 503.4,189.6 	"/>
	<polygon class="st3" points="1413.3,981.5 82.2,981.5 570.8,257 1901.9,257 	"/>
	<polyline class="st2" points="602.5,297.3 168.2,941.3 1132.2,941.3 	"/>
	<polygon class="st0" points="992,1082.6 997.1,1095.2 1005.6,1082.6 	"/>
	<polygon class="st0" points="2075.4,202.2 2070.4,189.6 2059.5,205.7 	"/>
	<polygon class="st0" points="1907,269.6 1901.9,257 1891,273.2 	"/>
	<polygon class="st0" points="1059.4,4.3 1064.6,16.9 1049.3,19.2 	"/>
</g>
</svg>
