<?xml version="1.0" encoding="utf-8"?>
<!-- Generator: Adobe Illustrator 23.0.3, SVG Export Plug-In . SVG Version: 6.00 Build 0)  -->
<svg version="1.1" id="Logo" xmlns="http://www.w3.org/2000/svg" xmlns:xlink="http://www.w3.org/1999/xlink" x="0px" y="0px"
	 viewBox="0 0 25 25" style="enable-background:new 0 0 25 25;" xml:space="preserve">
<g>
	<path d="M11.1,17.7c-0.9,0-1.6,0.7-1.6,1.6c0,0.9,0.7,1.6,1.6,1.6c0.9,0,1.6-0.7,1.6-1.6C12.7,18.4,11.9,17.7,11.1,17.7z
		 M11.1,19.9c-0.4,0-0.7-0.2-0.7-0.7c0-0.4,0.2-0.7,0.7-0.7c0.4,0,0.7,0.2,0.7,0.7C11.8,19.7,11.5,19.9,11.1,19.9z"/>
	<path d="M10.7,10.2H17c0.2,0,0.5-0.2,0.5-0.5c0-0.2-0.2-0.5-0.5-0.5h-6.3c-0.2,0-0.5,0.2-0.5,0.5C10.2,10,10.4,10.2,10.7,10.2z"/>
	<path d="M16.7,11.6h-5.6c-0.2,0-0.5,0.2-0.5,0.5s0.2,0.5,0.5,0.5h5.6c0.2,0,0.5-0.2,0.5-0.5C17.2,11.8,16.9,11.6,16.7,11.6z"/>
	<path d="M20.8,7h-14l0,0L6.6,5.6C6.5,5.4,6.3,5.1,6.1,5l-2-0.8c-0.2-0.1-0.5,0-0.6,0.2C3.5,4.7,3.5,4.9,3.8,5l2,0.8l0,0l2.1,10.4
		c0.1,0.4,0.5,0.7,0.9,0.7h10.6c0.2,0,0.5-0.2,0.5-0.4c0-0.2-0.2-0.5-0.5-0.5H8.8l0,0l-0.2-1.3l0,0h10.9c0.4,0,0.8-0.2,0.9-0.7
		l0.8-4.2l0,0l0.4-2.1C21.6,7.4,21.3,7,20.8,7z M8.3,13.9l-1.2-6l0,0c0.1,0,2.7,0,2.7,0h10.9l0,0L20,11.2l0,0l-0.6,2.6l0,0H8.3
		L8.3,13.9z"/>
	<path d="M16.6,17.7c-0.9,0-1.6,0.7-1.6,1.6c0,0.9,0.7,1.6,1.6,1.6c0.9,0,1.6-0.7,1.6-1.6C18.2,18.4,17.5,17.7,16.6,17.7z
		 M16.6,19.9c-0.4,0-0.7-0.2-0.7-0.7c0-0.4,0.2-0.7,0.7-0.7c0.5,0,0.7,0.2,0.7,0.7C17.3,19.7,17,19.9,16.6,19.9z"/>
</g>
</svg>
