<?xml version="1.0" encoding="utf-8"?>
<!-- Generator: Adobe Illustrator 23.0.3, SVG Export Plug-In . SVG Version: 6.00 Build 0)  -->
<svg version="1.1" id="Logo" xmlns="http://www.w3.org/2000/svg" xmlns:xlink="http://www.w3.org/1999/xlink" x="0px" y="0px"
	 viewBox="0 0 25 25" style="enable-background:new 0 0 25 25;" xml:space="preserve">
<style type="text/css">
	.st0{fill:#FFFFFF;}
</style>
<path class="st0" d="M17.1,8.6L8.7,17c-0.2,0.2-0.6,0.2-0.8,0l0,0c-0.2-0.2-0.2-0.6,0-0.8l8.4-8.4c0.2-0.2,0.6-0.2,0.8,0l0,0
	C17.3,8.1,17.3,8.4,17.1,8.6z"/>
<path class="st0" d="M16.3,17.1L7.9,8.6C7.7,8.4,7.7,8,7.9,7.8l0,0c0.2-0.2,0.6-0.2,0.8,0l8.4,8.4c0.2,0.2,0.2,0.6,0,0.8l0,0
	C16.9,17.3,16.5,17.3,16.3,17.1z"/>
</svg>
