<?xml version="1.0" encoding="utf-8"?>
<!-- Generator: Adobe Illustrator 23.0.3, SVG Export Plug-In . SVG Version: 6.00 Build 0)  -->
<svg version="1.1" id="Camada_1" xmlns="http://www.w3.org/2000/svg" xmlns:xlink="http://www.w3.org/1999/xlink" x="0px" y="0px"
	 viewBox="0 0 200 200" style="enable-background:new 0 0 200 200;" xml:space="preserve">
<style type="text/css">
	.st0{fill:#E62A44;}
</style>
<g>
	<path class="st0" d="M80.9,142.4h68.2v-6.9H80.9V142.4z M149.1,101.9H80.9v6.9h68.2V101.9z M149.1,66.5H80.9v7.8h68.2V66.5z
		 M59.9,80.3c0.5,0.5,1.1,0.7,1.7,0.7c0.1,0,0.2,0,0.4,0c0.8-0.1,1.4-0.6,1.8-1.2l9.4-16.6c0.7-1.2,0.3-2.7-0.9-3.4
		c-0.2-0.1-0.4-0.2-0.6-0.2h-1.3c-0.6,0.9-1.2,0.6-1.5,1.1l-7.8,13.8l-6.3-6.1c-1-1-2.6-0.9-3.5,0c-1,1-0.9,2.6,0,3.5L59.9,80.3z
		 M159.8,30.2h-6c0.1,0.9,0.2,0.3,0.2,0.5l0.4,1l0.1,0.3l0,0c0,0.1,0,0.2,0.1,0.3l2.6,8.7c3,1.7,4.8,4.7,4.8,8.3v114.6
		c0,5.5-4,11.3-9.5,11.3H52.7c-5.5,0-9.8-5.8-9.8-11.3V49.4c0-3.4,1.5-6.3,4.1-8l3.3-10.9c0-0.1,0,0.6,0-0.2h-4.8
		c-6.3,0-11.2,4.4-11.2,10.7v131.4c0,6.3,4.9,12.4,11.2,12.4h114.6c6.3,0,10.6-6.1,10.6-12.4V40.9C170.7,34.6,166.2,30.2,159.8,30.2
		z M59.9,148.6c0.5,0.5,1.1,0.7,1.7,0.7c0.1,0,0.2,0,0.4,0c0.8-0.1,1.4-0.6,1.8-1.2l9.4-16.6c0.7-1.2,0.3-2.7-0.9-3.4
		c-1.2-0.7-2.7-0.2-3.4,0.9l-7.8,13.8l-6.3-6.1c-1-1-2.6-0.9-3.5,0c-1,1-0.9,2.6,0,3.5L59.9,148.6z M59.9,114.7
		c0.5,0.5,1.1,0.7,1.7,0.7c0.1,0,0.2,0,0.4,0c0.8-0.1,1.4-0.6,1.8-1.2l9.4-16.6c0.7-1.2,0.3-2.7-0.9-3.4c-1.2-0.7-2.7-0.2-3.4,1
		l-7.8,13.8l-6.3-6.1c-1-1-2.6-0.9-3.5,0c-1,1-0.9,2.6,0,3.5L59.9,114.7z M60.8,50.9h82.7c3.3,0,6.9-3.5,5.9-6.9l-3.5-10.7
		c-1-3.4-2.7-5.8-5.9-5.8h-24.3c-0.6-7.8-6.4-12.3-13.5-12.3c-7.1,0-12.9,4.6-13.5,12.3H64.3c-3.3,0-4.9,1.9-5.9,5.4l-3.5,11.4
		C54,47.4,57.5,50.9,60.8,50.9z M102.1,21.1c3.8,0,7,3.9,7.5,6.5H94.6C95.2,25,98.3,21.1,102.1,21.1z"/>
</g>
</svg>
