<?xml version="1.0" encoding="utf-8"?>
<!-- Generator: Adobe Illustrator 23.0.3, SVG Export Plug-In . SVG Version: 6.00 Build 0)  -->
<svg version="1.1" id="Ebene_1" xmlns="http://www.w3.org/2000/svg" xmlns:xlink="http://www.w3.org/1999/xlink" x="0px" y="0px"
	 viewBox="0 0 25 25" style="enable-background:new 0 0 25 25;" xml:space="preserve">
<style type="text/css">
	.st0{fill:#9D9D9C;}
</style>
<g>
	<path class="st0" d="M10.6,17.7c1.7,0,3.2-0.6,4.4-1.6l5.3,5.3c0.1,0.1,0.3,0.2,0.4,0.2s0.3-0.1,0.4-0.2c0.2-0.2,0.2-0.6,0-0.9
		l-5.3-5.3c1-1.2,1.6-2.7,1.6-4.4C17.4,7,14.3,4,10.6,4s-6.8,3.1-6.8,6.8C3.7,14.7,6.8,17.7,10.6,17.7z M10.6,5.4
		c3.1,0,5.6,2.5,5.6,5.6s-2.5,5.6-5.6,5.6S5,14,5,10.9C5,7.9,7.5,5.4,10.6,5.4z"/>
</g>
</svg>
