<?xml version="1.0" encoding="utf-8"?>
<!-- Generator: Adobe Illustrator 23.0.3, SVG Export Plug-In . SVG Version: 6.00 Build 0)  -->
<svg version="1.1" id="Layer_1" xmlns="http://www.w3.org/2000/svg" xmlns:xlink="http://www.w3.org/1999/xlink" x="0px" y="0px"
	 viewBox="0 0 25 20.7" style="enable-background:new 0 0 25 20.7;" xml:space="preserve">
<style type="text/css">
	.st0{fill:#FFFFFF;}
</style>
<g>
	<path class="st0" d="M21.3,9.9l-1.8-3.5c-0.1-0.1-0.2-0.2-0.4-0.2h-4.9V3c0-0.2-0.2-0.4-0.4-0.4H3.4C3.1,2.6,3,2.8,3,3v11.2
		c0,0.2,0.2,0.4,0.4,0.4h1.8c0.1,0,0.2,0.1,0.2,0.2c0,1.2,1,2.2,2.2,2.2c1.2,0,2.2-1,2.2-2.2c0-0.1,0.1-0.2,0.2-0.2h5.3
		c0.1,0,0.2,0.1,0.2,0.2c0,1.2,1,2.2,2.2,2.2c1.2,0,2.2-1,2.2-2.2c0-0.1,0.1-0.2,0.2-0.2H21c0.2,0,0.4-0.2,0.4-0.4v-4.1
		C21.4,10,21.4,10,21.3,9.9C21.3,9.9,21.3,9.9,21.3,9.9z M18.7,14.3C18.7,14.3,18.7,14.3,18.7,14.3c0.1,0.2,0.1,0.3,0.1,0.5
		c0,0.8-0.6,1.4-1.4,1.4c-0.8,0-1.4-0.6-1.4-1.4c0-0.1,0-0.3,0.1-0.4c0,0,0,0,0,0c0.1-0.4,0.4-0.7,0.8-0.8c0,0,0,0,0.1,0
		c0.1,0,0.3-0.1,0.4-0.1c0.1,0,0.2,0,0.4,0.1c0,0,0,0,0.1,0C18.3,13.6,18.6,13.9,18.7,14.3z M20.2,9.6c0,0.1-0.1,0.1-0.2,0.1h-2
		c-0.1,0-0.2-0.1-0.2-0.2V7.1C17.9,7,17.9,7,18,7h0.8C18.9,7,19,7,19,7.1l1.2,2.3C20.2,9.5,20.2,9.5,20.2,9.6z M16.9,7
		C17,7,17.1,7,17.1,7.1v2.9c0,0.2,0.2,0.4,0.4,0.4h2.9c0.1,0,0.2,0.1,0.2,0.2v2.9c0,0.1-0.1,0.2-0.2,0.2h-0.9c-0.1,0-0.1,0-0.2-0.1
		c0,0,0,0,0,0c0-0.1-0.1-0.1-0.1-0.2c0,0-0.1-0.1-0.1-0.1l0,0c-0.1-0.1-0.1-0.1-0.2-0.2c0,0-0.1-0.1-0.2-0.1c0,0-0.1-0.1-0.1-0.1
		c-0.1,0-0.1-0.1-0.2-0.1l0,0c0,0-0.1,0-0.1,0c-0.1,0-0.2-0.1-0.3-0.1c0,0-0.1,0-0.1,0c-0.1,0-0.3,0-0.4,0c-0.1,0-0.2,0-0.4,0
		c0,0-0.1,0-0.1,0c-0.1,0-0.2,0.1-0.3,0.1c0,0-0.1,0-0.1,0l0,0c-0.1,0-0.2,0.1-0.2,0.1c0,0-0.1,0.1-0.1,0.1c-0.1,0-0.1,0.1-0.2,0.1
		c-0.1,0.1-0.1,0.1-0.2,0.2l0,0c0,0-0.1,0.1-0.1,0.1c0,0.1-0.1,0.1-0.1,0.2c0,0,0,0,0,0c0,0.1-0.1,0.1-0.2,0.1h-0.9
		c-0.1,0-0.2-0.1-0.2-0.2V7H16.9z M8.8,14.3C8.8,14.3,8.8,14.3,8.8,14.3c0.1,0.2,0.1,0.3,0.1,0.5c0,0.8-0.6,1.4-1.4,1.4
		c-0.8,0-1.4-0.6-1.4-1.4c0-0.1,0-0.3,0.1-0.4c0,0,0,0,0,0c0.1-0.4,0.4-0.7,0.8-0.8c0,0,0,0,0.1,0c0.1,0,0.3-0.1,0.4-0.1
		c0.1,0,0.2,0,0.4,0.1c0,0,0,0,0.1,0C8.3,13.6,8.6,13.9,8.8,14.3z M13.5,13.6c0,0.1-0.1,0.2-0.2,0.2H9.5c-0.1,0-0.1,0-0.2-0.1
		c0,0,0,0,0,0c0-0.1-0.1-0.1-0.1-0.2c0,0-0.1-0.1-0.1-0.1l0,0C9,13.3,9,13.2,8.9,13.2c0,0-0.1-0.1-0.2-0.1c0,0-0.1-0.1-0.1-0.1
		c-0.1,0-0.1-0.1-0.2-0.1l0,0c0,0-0.1,0-0.1,0c-0.1,0-0.2-0.1-0.3-0.1c0,0-0.1,0-0.1,0c-0.1,0-0.3,0-0.4,0c-0.1,0-0.2,0-0.4,0
		c0,0-0.1,0-0.1,0c-0.1,0-0.2,0.1-0.3,0.1c0,0-0.1,0-0.1,0l0,0c-0.1,0-0.2,0.1-0.2,0.1c0,0-0.1,0.1-0.1,0.1c-0.1,0-0.1,0.1-0.2,0.1
		c-0.1,0.1-0.1,0.1-0.2,0.2l0,0c0,0-0.1,0.1-0.1,0.1c0,0.1-0.1,0.1-0.1,0.2c0,0,0,0,0,0c0,0.1-0.1,0.1-0.2,0.1H4
		c-0.1,0-0.2-0.1-0.2-0.2v-10c0-0.1,0.1-0.2,0.2-0.2h2.3c0.1,0,0.2,0.1,0.2,0.2v4.7c0,0.1,0.1,0.3,0.2,0.3c0.1,0,0.1,0,0.2,0
		c0.1,0,0.2,0,0.2-0.1l1.4-1c0,0,0.1,0,0.1,0c0,0,0.1,0,0.1,0l1.4,1c0.1,0,0.1,0.1,0.2,0.1c0.1,0,0.1,0,0.2,0
		c0.1-0.1,0.2-0.2,0.2-0.3V3.6c0-0.1,0.1-0.2,0.2-0.2h2.3c0.1,0,0.2,0.1,0.2,0.2V13.6z"/>
	<path class="st0" d="M17.5,14.4c-0.2,0-0.4,0.2-0.4,0.4c0,0.2,0.2,0.4,0.4,0.4c0.2,0,0.4-0.2,0.4-0.4
		C17.9,14.6,17.7,14.4,17.5,14.4z"/>
	<path class="st0" d="M7.5,14.4c-0.2,0-0.4,0.2-0.4,0.4c0,0.2,0.2,0.4,0.4,0.4c0.2,0,0.4-0.2,0.4-0.4C7.9,14.6,7.7,14.4,7.5,14.4z"
		/>
</g>
</svg>
