<?xml version="1.0" encoding="utf-8"?>
<!-- Generator: Adobe Illustrator 23.0.3, SVG Export Plug-In . SVG Version: 6.00 Build 0)  -->
<svg version="1.1" id="Camada_1" xmlns="http://www.w3.org/2000/svg" xmlns:xlink="http://www.w3.org/1999/xlink" x="0px" y="0px"
	 viewBox="0 0 200 200" style="enable-background:new 0 0 200 200;" xml:space="preserve">
<style type="text/css">
	.st0{fill:#E62A44;}
</style>
<g>
	<g>
		<path class="st0" d="M106.9,33.7c-0.6-0.8-1.5-1.3-2.6-1.3c-1,0-2,0.5-2.6,1.3c-1.7,2.5-41.4,60.6-41.4,90
			c0,24.2,19.7,43.9,43.9,43.9s43.9-19.7,43.9-43.9C148.2,94.3,108.6,36.2,106.9,33.7z M104.3,153.2c-1.7,0-3.1-1.4-3.1-3.1
			c0-1.7,1.4-3.1,3.1-3.1c12.8,0,23.3-10.4,23.3-23.3c0-1.7,1.4-3.1,3.1-3.1c1.7,0,3.1,1.4,3.1,3.1
			C133.8,139.9,120.6,153.2,104.3,153.2z"/>
	</g>
	<path class="st0" d="M165,44.9h-6v-6c0-1.7-1.4-3.1-3.1-3.1c-1.7,0-3.1,1.4-3.1,3.1v6h-6c-1.7,0-3.1,1.4-3.1,3.1s1.4,3.1,3.1,3.1h6
		v6c0,1.7,1.4,3.1,3.1,3.1c1.7,0,3.1-1.4,3.1-3.1v-6h6c1.7,0,3.1-1.4,3.1-3.1S166.7,44.9,165,44.9z"/>
	<path class="st0" d="M53.2,138.2h-6v-6c0-1.7-1.4-3.1-3.1-3.1c-1.7,0-3.1,1.4-3.1,3.1v6h-6c-1.7,0-3.1,1.4-3.1,3.1s1.4,3.1,3.1,3.1
		h6v6c0,1.7,1.4,3.1,3.1,3.1c1.7,0,3.1-1.4,3.1-3.1v-6h6c1.7,0,3.1-1.4,3.1-3.1S54.9,138.2,53.2,138.2z"/>
</g>
</svg>
