<?xml version="1.0" encoding="utf-8"?>
<!-- Generator: Adobe Illustrator 23.0.3, SVG Export Plug-In . SVG Version: 6.00 Build 0)  -->
<svg version="1.1" id="Layer_1" xmlns="http://www.w3.org/2000/svg" xmlns:xlink="http://www.w3.org/1999/xlink" x="0px" y="0px"
	 viewBox="0 0 25 20.7" style="enable-background:new 0 0 25 20.7;" xml:space="preserve">
<style type="text/css">
	.st0{fill:#FFFFFF;}
</style>
<path class="st0" d="M13.6,15.3c0,0.1,0,0.1,0.1,0.1c0,0,0.1,0,0.1,0c0,0-0.1,0-0.1,0C13.6,15.4,13.6,15.4,13.6,15.3z"/>
<g>
	<path class="st0" d="M15.6,6.4L10,4.1c0,0,0,0-0.1,0c0,0,0,0-0.1,0L7.6,5c-0.1,0-0.1,0.1-0.1,0.1c0,0.1,0,0.1,0.1,0.1l5.6,2.3
		c0,0,0,0,0.1,0c0,0,0,0,0.1,0l2.2-0.9c0.1,0,0.1-0.1,0.1-0.1C15.7,6.5,15.6,6.5,15.6,6.4z"/>
	<path class="st0" d="M18.9,5l-5.6-2.3c0,0,0,0-0.1,0c0,0,0,0-0.1,0l-2.1,0.9c-0.1,0-0.1,0.1-0.1,0.1c0,0.1,0,0.1,0.1,0.1l5.4,2.3h0
		c0.1,0.1,0.2,0.1,0.4,0l2-0.8C19,5.3,19,5.3,19,5.2C19,5.1,19,5.1,18.9,5z"/>
	<path class="st0" d="M20.4,5.2c0,0,0-0.1,0-0.1c0,0,0,0,0,0c0,0,0-0.1-0.1-0.1c0,0,0,0,0,0l0,0c0,0,0,0,0,0c0,0,0,0,0,0l0,0
		c0,0,0,0,0,0L13.4,2c0,0-0.1,0-0.1,0c0,0-0.1,0-0.1,0L6.3,4.9c0,0,0,0,0,0l0,0c0,0,0,0,0,0c0,0,0,0,0,0l0,0c0,0,0,0,0,0
		c0,0,0,0.1-0.1,0.1c0,0,0,0,0,0c0,0,0,0.1,0,0.1c0,0,0,0,0,0v3c0,0.2,0.1,0.3,0.3,0.3s0.3-0.1,0.3-0.3V5.9c0-0.1,0-0.1,0.1-0.1
		c0,0,0.1,0,0.1,0c0,0,0,0,0.1,0l5.9,2.4c0.1,0,0.1,0.1,0.1,0.1V16c0,0,0,0.1,0,0.1l0,0c0,0,0,0,0,0c0,0,0,0.1,0.1,0.1
		c0,0,0.1,0.1,0.1,0.1c0,0,0.1,0,0.1,0c0,0,0.1,0,0.1,0l6.9-2.9c0.1-0.1,0.2-0.2,0.2-0.3L20.4,5.2C20.4,5.2,20.4,5.2,20.4,5.2z
		 M15.6,6.7l-2.2,0.9c0,0,0,0-0.1,0c0,0,0,0-0.1,0L7.6,5.3c-0.1,0-0.1-0.1-0.1-0.1c0-0.1,0-0.1,0.1-0.1l2.2-0.9c0,0,0,0,0.1,0
		c0,0,0,0,0.1,0l5.6,2.3c0.1,0,0.1,0.1,0.1,0.1C15.7,6.6,15.6,6.7,15.6,6.7z M18.5,11.5C18.5,11.5,18.5,11.6,18.5,11.5
		C18.5,11.6,18.5,11.6,18.5,11.5c0,0.2-0.1,0.4-0.2,0.4l-1.4,0.6c0,0-0.1,0-0.1,0c-0.1,0-0.3-0.1-0.3-0.2c0-0.1,0-0.2,0-0.3
		c0-0.1,0.1-0.1,0.2-0.2l1.1-0.4c0.1,0,0.1-0.1,0.1-0.1v-1.1c0-0.2,0.1-0.3,0.3-0.3c0.2,0,0.3,0.1,0.3,0.3V11.5z M18.9,5.3l-2,0.8
		c-0.1,0-0.2,0-0.4,0h0l-5.4-2.3c-0.1,0-0.1-0.1-0.1-0.1c0-0.1,0-0.1,0.1-0.1l2.1-0.9c0,0,0,0,0.1,0c0,0,0,0,0.1,0L18.9,5
		C19,5.1,19,5.1,19,5.2C19,5.3,19,5.3,18.9,5.3z"/>
</g>
<path class="st0" d="M11.4,10.4c-0.1-0.1-0.2-0.1-0.3-0.1c0,0,0,0-0.1,0c-0.1,0-0.3,0-0.4,0c-0.9,0-1.5-0.5-1.8-0.8L8.7,9.5
	C8.6,9.4,8.5,9.3,8.4,9.3c-0.1,0-0.2,0-0.3,0.1L7.9,9.5C7.6,9.8,7,10.3,6.1,10.3c-0.1,0-0.3,0-0.4,0c0,0,0,0-0.1,0
	c-0.1,0-0.2,0-0.3,0.1c-0.1,0.1-0.2,0.3-0.2,0.4c-0.1,1.3,0,5.5,3.1,6.5c0.1,0,0.1,0,0.2,0c0.1,0,0.1,0,0.2,0c3.1-1,3.2-5.2,3.1-6.5
	C11.6,10.6,11.5,10.5,11.4,10.4z"/>
</svg>
