<?xml version="1.0" encoding="utf-8"?>
<!-- Generator: Adobe Illustrator 23.0.3, SVG Export Plug-In . SVG Version: 6.00 Build 0)  -->
<svg version="1.1" id="Layer_1" xmlns="http://www.w3.org/2000/svg" xmlns:xlink="http://www.w3.org/1999/xlink" x="0px" y="0px"
	 viewBox="0 0 25 20.7" style="enable-background:new 0 0 25 20.7;" xml:space="preserve">
<style type="text/css">
	.st0{fill:#FFFFFF;}
</style>
<path class="st0" d="M21.5,6.4L21.5,6.4C21.5,6.4,21.5,6.4,21.5,6.4L21.5,6.4z"/>
<path class="st0" d="M21.5,2.9L21.5,2.9C21.5,2.9,21.5,2.9,21.5,2.9L21.5,2.9z"/>
<path class="st0" d="M9.5,2.9h0.1C9.5,2.9,9.5,2.9,9.5,2.9C9.5,2.9,9.5,2.9,9.5,2.9z"/>
<path class="st0" d="M9.4,6.4h0.1C9.5,6.4,9.5,6.4,9.4,6.4C9.5,6.4,9.4,6.4,9.4,6.4z"/>
<path class="st0" d="M15.9,6.4h0.1c0,0,0,0,0,0C16,6.4,16,6.4,15.9,6.4z"/>
<path class="st0" d="M21.5,7.4H4c-0.2,0-0.4,0.2-0.4,0.4v9.3c0,0.2,0.2,0.4,0.4,0.4h17.5c0.2,0,0.4-0.2,0.4-0.4V7.8
	C21.9,7.6,21.7,7.4,21.5,7.4z M12.9,12.1c1.2,0.5,1.4,1.2,1.4,1.6c0,0.4-0.2,0.8-0.5,1.1c-0.2,0.1-0.3,0.2-0.5,0.3
	c-0.1,0-0.1,0.1-0.1,0.2v0.1c0,0.2-0.2,0.4-0.4,0.4s-0.4-0.2-0.4-0.4v-0.1c0-0.1-0.1-0.2-0.1-0.2c-0.5-0.1-0.8-0.5-1-0.9
	c0-0.1,0-0.2,0-0.3c0-0.1,0.1-0.2,0.2-0.2c0,0,0.1,0,0.1,0c0.2,0,0.3,0.1,0.4,0.3c0.1,0.3,0.4,0.5,0.8,0.5c0.2,0,0.4-0.1,0.6-0.2
	c0.1-0.1,0.2-0.3,0.2-0.5c0-0.4-0.6-0.7-0.9-0.8c-1.2-0.5-1.4-1.2-1.4-1.6c0-0.4,0.2-0.8,0.5-1.1c0.2-0.1,0.3-0.2,0.5-0.3
	c0.1,0,0.1-0.1,0.1-0.2V9.6c0-0.2,0.2-0.4,0.4-0.4s0.4,0.2,0.4,0.4v0.1c0,0.1,0.1,0.2,0.1,0.2c0.5,0.1,0.8,0.5,1,0.9
	c0,0.1,0,0.2,0,0.3c0,0.1-0.1,0.2-0.2,0.2c0,0-0.1,0-0.1,0c-0.2,0-0.3-0.1-0.4-0.3c-0.1-0.3-0.4-0.5-0.8-0.5c-0.2,0-0.4,0.1-0.6,0.2
	c-0.2,0.1-0.2,0.3-0.2,0.5C12,11.7,12.6,12,12.9,12.1z M4.6,16.7c-0.1,0-0.2-0.1-0.2-0.2V8.4c0-0.1,0.1-0.2,0.2-0.2h5.2
	c0.1,0,0.2,0,0.2,0.1c0,0.1,0,0.2,0,0.2c-1.1,1-1.7,2.4-1.7,3.9c0,1.8,0.8,3.4,2.1,4.3H4.6z M21.1,16.6c0,0.1-0.1,0.2-0.2,0.2h-5.8
	c1.3-0.9,2.1-2.5,2.1-4.3c0-1.5-0.6-3-1.7-3.9c-0.1-0.1-0.1-0.1,0-0.2c0-0.1,0.1-0.1,0.2-0.1h5.2c0.1,0,0.2,0.1,0.2,0.2V16.6z"/>
<rect x="18.8" y="12.1" class="st0" width="0.8" height="0.8"/>
<rect x="5.9" y="12.1" class="st0" width="0.8" height="0.8"/>
<path class="st0" d="M4,6.4c0.2,0,0.4-0.2,0.4-0.4V4.9c0-0.1,0.1-0.2,0.2-0.2h5.2c0.1,0,0.2,0,0.2,0.1C10,4.9,10,5,10,5
	C9.7,5.3,9.5,5.5,9.3,5.8C9.1,6,9.2,6.2,9.3,6.4c0,0,0.1,0,0.1,0.1c0,0,0.1,0,0.1,0c0.1,0,0.2-0.1,0.3-0.2c0.7-1,1.8-1.6,2.9-1.6
	c1.1,0,2.2,0.6,2.9,1.6c0.1,0.1,0.2,0.2,0.3,0.2c0,0,0,0,0,0c0,0,0,0,0,0c0,0,0.1,0,0.1,0c0,0,0.1,0,0.1-0.1
	c0.2-0.1,0.2-0.4,0.1-0.5c-0.2-0.3-0.4-0.6-0.7-0.8c-0.1-0.1-0.1-0.1,0-0.2c0-0.1,0.1-0.1,0.2-0.1h5.2c0.1,0,0.2,0.1,0.2,0.2V6
	c0,0.2,0.2,0.4,0.4,0.4c0,0,0,0,0,0c0.2,0,0.4-0.2,0.4-0.4V4.3c0-0.2-0.2-0.4-0.4-0.4H4c-0.2,0-0.4,0.2-0.4,0.4V6
	C3.6,6.3,3.8,6.4,4,6.4z"/>
</svg>
