<?xml version="1.0" encoding="utf-8"?>
<!-- Generator: Adobe Illustrator 23.0.3, SVG Export Plug-In . SVG Version: 6.00 Build 0)  -->
<svg version="1.1" id="Logo" xmlns="http://www.w3.org/2000/svg" xmlns:xlink="http://www.w3.org/1999/xlink" x="0px" y="0px"
	 viewBox="0 0 25 25" style="enable-background:new 0 0 25 25;" xml:space="preserve">
<style type="text/css">
	.st0{fill:#FFFFFF;}
</style>
<path class="st0" d="M18.4,9.3H6.5C6.2,9.3,6,9,6,8.7l0,0c0-0.3,0.3-0.6,0.6-0.6h11.9c0.3,0,0.6,0.3,0.6,0.6l0,0
	C19,9,18.7,9.3,18.4,9.3z"/>
<path class="st0" d="M18.4,13H6.5C6.2,13,6,12.8,6,12.5l0,0c0-0.3,0.3-0.6,0.6-0.6h11.9c0.3,0,0.6,0.3,0.6,0.6l0,0
	C19,12.8,18.7,13,18.4,13z"/>
<path class="st0" d="M18.4,16.8H6.5c-0.3,0-0.6-0.3-0.6-0.6l0,0c0-0.3,0.3-0.6,0.6-0.6h11.9c0.3,0,0.6,0.3,0.6,0.6l0,0
	C19,16.5,18.7,16.8,18.4,16.8z"/>
</svg>
