<?xml version="1.0" encoding="utf-8"?>
<!-- Generator: Adobe Illustrator 23.0.3, SVG Export Plug-In . SVG Version: 6.00 Build 0)  -->
<svg version="1.1" id="Layer_1" xmlns="http://www.w3.org/2000/svg" xmlns:xlink="http://www.w3.org/1999/xlink" x="0px" y="0px"
	 viewBox="0 0 25 20.7" style="enable-background:new 0 0 25 20.7;" xml:space="preserve">
<style type="text/css">
	.st0{fill:#FFFFFF;}
</style>
<g>
	<path class="st0" d="M21.3,3.5H3.7C3.1,3.5,2.6,4,2.6,4.6v11.3c0,0.6,0.5,1.1,1.1,1.1h17.6c0.6,0,1.1-0.5,1.1-1.1V4.6
		C22.4,4,21.9,3.5,21.3,3.5z M21.5,15.9c0,0.1-0.1,0.2-0.2,0.2H3.7c-0.1,0-0.2-0.1-0.2-0.2V4.6c0-0.1,0.1-0.2,0.2-0.2h17.6
		c0.1,0,0.2,0.1,0.2,0.2V15.9z"/>
	<path class="st0" d="M7.5,13.6H6.2c-0.2,0-0.4,0.2-0.4,0.4s0.2,0.4,0.4,0.4h1.3c0.2,0,0.4-0.2,0.4-0.4S7.7,13.6,7.5,13.6z"/>
	<path class="st0" d="M11.2,13.6H10c-0.2,0-0.4,0.2-0.4,0.4s0.2,0.4,0.4,0.4h1.3c0.2,0,0.4-0.2,0.4-0.4S11.5,13.6,11.2,13.6z"/>
	<path class="st0" d="M15,13.6h-1.3c-0.2,0-0.4,0.2-0.4,0.4s0.2,0.4,0.4,0.4H15c0.2,0,0.4-0.2,0.4-0.4S15.2,13.6,15,13.6z"/>
	<path class="st0" d="M10.3,6c-1.1,0-2,0.9-2,2c0,1.1,0.9,2,2,2c1.1,0,2-0.9,2-2C12.3,6.9,11.4,6,10.3,6z"/>
	<path class="st0" d="M6,8c0-0.6,0.5-1.1,1.1-1.1c0.2,0,0.4-0.2,0.4-0.4C7.6,6.2,7.4,6,7.2,6c-1.1,0-2,0.9-2,2c0,1.1,0.9,2,2,2
		c0.2,0,0.4-0.2,0.4-0.4S7.4,9.2,7.2,9.2C6.5,9.2,6,8.7,6,8z"/>
</g>
</svg>
