<?xml version="1.0" encoding="utf-8"?>
<!-- Generator: Adobe Illustrator 23.0.3, SVG Export Plug-In . SVG Version: 6.00 Build 0)  -->
<svg version="1.1" id="Camada_1" xmlns="http://www.w3.org/2000/svg" xmlns:xlink="http://www.w3.org/1999/xlink" x="0px" y="0px"
	 viewBox="0 0 200 200" style="enable-background:new 0 0 200 200;" xml:space="preserve">
<style type="text/css">
	.st0{fill:#E62A44;}
</style>
<g>
	<path class="st0" d="M61.5,100.1h-9.3V100c0-26,20.8-47.9,47.2-47.8c12.9,0.1,24.8,5.3,33.2,13.8L148,51.2
		c-12.4-12.5-29.6-20.3-48.6-20.3c-37.9,0-68.7,31-68.7,69.2h-9.4c-5.8,0-8.2,3.9-5.3,8.6l20.2,20c4,4,6.4,4.1,10.5,0l20.2-20
		C69.7,104,67.3,100.1,61.5,100.1z M184,91.8l-20.2-19.9c-4.1-4.1-6.7-3.9-10.5,0l-20.2,19.9c-2.9,4.7-0.5,8.6,5.3,8.6h9.3
		c-0.1,25.8-20.8,47.5-47.2,47.4c-12.9-0.1-24.7-5.3-33.2-13.8L52,148.9c12.4,12.5,29.6,20.3,48.6,20.3c37.8,0,68.5-30.8,68.7-68.7
		h9.5C184.6,100.4,186.9,96.5,184,91.8z"/>
</g>
</svg>
