<?xml version="1.0" encoding="utf-8"?>
<!-- Generator: Adobe Illustrator 23.0.3, SVG Export Plug-In . SVG Version: 6.00 Build 0)  -->
<svg version="1.1" id="Logo" xmlns="http://www.w3.org/2000/svg" xmlns:xlink="http://www.w3.org/1999/xlink" x="0px" y="0px"
	 viewBox="0 0 25 25" style="enable-background:new 0 0 25 25;" xml:space="preserve">
<g>
	<path d="M12.5,13.6c2.5,0,4.6-2.1,4.6-4.6S15,4.3,12.5,4.3s-4.6,2-4.6,4.5S10,13.6,12.5,13.6z M12.5,5.5C14.4,5.5,16,7,16,9
		s-1.5,3.5-3.5,3.5S9,10.9,9,9S10.6,5.5,12.5,5.5z"/>
	<path d="M4.5,20.7h16c0.4,0,0.6-0.2,0.6-0.6c0-3.2-2.6-5.8-5.8-5.8H9.7c-3.2,0-5.8,2.6-5.8,5.8C4,20.4,4.2,20.7,4.5,20.7z
		 M9.7,15.5h5.7c2.3,0,4.3,1.7,4.5,4H5.1C5.4,17.3,7.3,15.5,9.7,15.5z"/>
</g>
</svg>
