<?xml version="1.0" encoding="utf-8"?>
<!-- Generator: Adobe Illustrator 23.0.3, SVG Export Plug-In . SVG Version: 6.00 Build 0)  -->
<svg version="1.1" id="Ebene_1" xmlns="http://www.w3.org/2000/svg" xmlns:xlink="http://www.w3.org/1999/xlink" x="0px" y="0px"
	 viewBox="0 0 25 25" style="enable-background:new 0 0 25 25;" xml:space="preserve">
<style type="text/css">
	.st0{fill:#6A4322;}
</style>
<g>
	<path class="st0" d="M12.5,3.5c2.9,0,3.3,0,4.4,0.1c1.1,0,1.6,0.2,2,0.4c0.5,0.2,0.9,0.4,1.3,0.8s0.6,0.8,0.8,1.3
		c0.1,0.4,0.3,1,0.4,2c0,1.2,0.1,1.5,0.1,4.4s0,3.3-0.1,4.4c0,1.1-0.2,1.6-0.4,2c-0.2,0.5-0.4,0.9-0.8,1.3s-0.8,0.6-1.3,0.8
		c-0.4,0.1-1,0.3-2,0.4c-1.2,0-1.5,0.1-4.4,0.1s-3.3,0-4.4-0.1c-1.1,0-1.7-0.2-2-0.4c-0.5-0.2-0.9-0.4-1.3-0.8S4.1,19.5,3.9,19
		c-0.2-0.4-0.3-1-0.4-2c0-1.2-0.1-1.5-0.1-4.4s0-3.3,0.1-4.4c0-1.1,0.2-1.6,0.4-2c0.2-0.5,0.4-0.9,0.8-1.3c0.4-0.5,0.8-0.8,1.3-1
		c0.4-0.2,1-0.3,2.1-0.4C9.2,3.5,9.6,3.5,12.5,3.5 M12.5,1.5c-3,0-3.4,0-4.5,0.1c-1.2,0-2,0.2-2.7,0.5C4.6,2.4,4,2.7,3.3,3.3
		C2.7,4,2.4,4.6,2.1,5.3S1.6,6.8,1.6,8c-0.1,1.2-0.1,1.6-0.1,4.5s0,3.4,0.1,4.5c0,1.2,0.2,2,0.5,2.7s0.7,1.3,1.3,2s1.2,1,2,1.3
		C6,23.2,6.8,23.4,8,23.4s1.6,0.1,4.5,0.1s3.4,0,4.5-0.1c1.2,0,2-0.2,2.7-0.5s1.3-0.7,2-1.3s1-1.2,1.3-2c0.3-0.7,0.5-1.5,0.5-2.7
		s0.1-1.6,0.1-4.5s0-3.4-0.1-4.5c0-1.2-0.2-2-0.5-2.7s-0.7-1.3-1.3-2s-1.2-1-2-1.3C19,1.8,18.2,1.6,17,1.6
		C15.9,1.5,15.5,1.5,12.5,1.5L12.5,1.5z"/>
	<path class="st0" d="M12.5,6.8c-3.1,0-5.7,2.5-5.7,5.7s2.5,5.6,5.7,5.6s5.6-2.5,5.6-5.6S15.6,6.8,12.5,6.8z M12.5,16.2
		c-2,0-3.7-1.6-3.7-3.7s1.6-3.7,3.7-3.7s3.7,1.6,3.7,3.7S14.5,16.2,12.5,16.2z"/>
	<circle class="st0" cx="18.4" cy="6.6" r="1.3"/>
</g>
</svg>
