<?xml version="1.0" encoding="utf-8"?>
<!-- Generator: Adobe Illustrator 23.0.3, SVG Export Plug-In . SVG Version: 6.00 Build 0)  -->
<svg version="1.1" id="Ebene_1" xmlns="http://www.w3.org/2000/svg" xmlns:xlink="http://www.w3.org/1999/xlink" x="0px" y="0px"
	 viewBox="0 0 25 25" style="enable-background:new 0 0 25 25;" xml:space="preserve">
<style type="text/css">
	.st0{fill:#6A4322;}
</style>
<path class="st0" d="M22.8,7.3c-0.2-0.9-1-1.6-1.9-1.9C19.2,5,12.5,5,12.5,5S5.8,5,4.1,5.4c-0.9,0.2-1.6,1-1.9,1.9
	C1.8,9,1.8,12.5,1.8,12.5s0,3.5,0.4,5.2c0.2,0.9,1,1.6,1.9,1.9C5.8,20,12.5,20,12.5,20s6.7,0,8.4-0.4c0.9-0.2,1.6-1,1.9-1.9
	c0.4-1.7,0.4-5.2,0.4-5.2S23.2,9,22.8,7.3z M10.4,15.7V9.3l5.6,3.2L10.4,15.7z"/>
</svg>
