<?xml version="1.0" encoding="utf-8"?>
<!-- Generator: Adobe Illustrator 23.0.3, SVG Export Plug-In . SVG Version: 6.00 Build 0)  -->
<svg version="1.1" id="Camada_1" xmlns="http://www.w3.org/2000/svg" xmlns:xlink="http://www.w3.org/1999/xlink" x="0px" y="0px"
	 viewBox="0 0 200 50" style="enable-background:new 0 0 200 50;" xml:space="preserve">
<style type="text/css">
	.st0{fill:#1C1C1B;}
</style>
<g>
	<path class="st0" d="M193.7,12.8c-1,0-1.7,0.8-1.7,1.7v10.8c0,3.9-3,6.8-7,6.8c-4,0-5.8-2.3-5.8-7c0-4,0.4-6.9,1.1-10.5
		c0.2-0.9-0.7-1.7-1.7-1.7c-1,0-1.6,0.8-1.8,1.7c-0.7,4-1.1,6.8-1.1,10.8c0,6.1,3.4,9.8,9.2,9.8c2.9,0,5.3-1.2,7-3.3v1
		c0,5.8-2.5,9.4-6.5,9.4c-4.7,0-5.5-2.4-6.6-2.4c-0.8,0-1.3,0.6-1.3,1.4c0,2.2,3.8,4.1,7.9,4.1c6.1,0,9.9-4.9,9.9-12.8V27V14.6
		C195.5,13.6,194.7,12.8,193.7,12.8z"/>
	<path class="st0" d="M155,18.9c0-2,2.2-3.3,5.7-3.3c1.6,0,3.7,0.6,5.6,1.5c0.9,0.4,1.8,0.1,2.2-0.7c0.3-0.9-0.1-1.7-0.9-2.1
		c-1.9-1.1-4.5-1.8-6.7-1.8c-5.8,0-9.3,2.5-9.3,6.5c0,8.3,14.5,4.6,14.5,9.7c0,2.1-2.1,3.5-5.4,3.5c-1.9,0-4.8-0.7-6.7-1.7
		c-0.9-0.4-1.8-0.1-2.2,0.7c-0.3,0.9,0.1,1.7,0.9,2.1c1.9,1.1,5.3,2,7.8,2c5.7,0,9-2.6,9-6.7C169.6,20.4,155,24.6,155,18.9z"/>
	<path class="st0" d="M109.3,12.5c-5.9,0-10.4,4.8-10.4,11.2c0,7.1,4.1,11.4,10.6,11.4c4.1,0,9-1.8,9-4.1c0-0.8-0.6-1.4-1.3-1.4
		c-1.1,0-3,2.4-7.6,2.4c-4.4,0-7.1-2.6-7.1-6.8h14.2c1.7,0,2.6-0.8,2.6-2.5v-1.2C119.2,16.4,114.9,12.5,109.3,12.5z M115.8,21.9
		c-0.1,0.3-0.2,0.5-0.6,0.5h-12.8v-0.3c0-3.7,3-6.5,6.9-6.5c3.7,0,6.5,2.5,6.5,5.8V21.9z"/>
	<path class="st0" d="M27,19c0.9,0.7,2,1,3.2,1c1.1,0,2.3-0.3,3.2-1c0.4-0.3,0.5-0.9,0.2-1.3c-0.3-0.4-0.9-0.5-1.3-0.2
		c-1.5,1-3.2,0.8-4.2,0c-0.4-0.3-1-0.2-1.3,0.2C26.5,18.1,26.6,18.7,27,19z"/>
	<path class="st0" d="M24.2,25.8c-0.4,0-0.6,0.4-0.6,1.2c0,1.3,0.2,2.5,0.6,3.7c0.4-1.1,0.6-2.4,0.6-3.7
		C24.9,26.2,24.7,25.8,24.2,25.8z"/>
	<path class="st0" d="M134.6,12.4c-3.6,0-8.4,1.8-8.4,4.1c0,0.8,0.6,1.4,1.3,1.4c1.1,0,3-2.4,7.1-2.4c3.8,0,6.5,2.6,6.5,6.6
		c-2.5-0.6-4.6-0.9-6.4-0.9c-5.8,0-9.3,2.6-9.3,6.8c0,4,4,7.1,9.3,7.1c6.1,0,9.9-4.3,9.9-11.3C144.7,16.8,140.8,12.4,134.6,12.4z
		 M135.2,32.1c-3.5,0-6.2-1.8-6.2-4.1s2.2-3.8,5.9-3.8c1.8,0,3.9,0.3,6.3,0.9C141.2,29.4,138.9,32.1,135.2,32.1z"/>
	<path class="st0" d="M87.9,13c-0.9,0.4-1.4,1.5-0.9,2.5c1.1,2.2,2,5.2,2,8.2c0,5.2-2.6,8.5-6.7,8.5c-2.6,0-5.1-1.7-6.8-4.2
		c1.5-2.8,2.4-6.1,2.4-9.5c0-3.2-1.7-5.2-4.4-5.2s-4.4,2-4.4,5.2c0,3.4,0.9,6.7,2.4,9.5c-1.8,2.5-4.2,4.2-6.8,4.2
		c-4.1,0-6.7-3.3-6.7-8.5c0-3,0.9-5.9,2-8.2c0.5-1,0.1-2.1-0.9-2.5c-0.9-0.3-2,0.1-2.4,1.1c-1.4,2.9-2.2,6.4-2.2,9.5
		c0,7.1,3.9,11.6,10.3,11.6c3.4,0,6.5-1.7,8.8-4.4c2.3,2.7,5.3,4.4,8.8,4.4c6.4,0,10.3-4.5,10.3-11.6c0-3.1-0.8-6.6-2.2-9.5
		C89.9,13.1,88.8,12.6,87.9,13z M72.5,18.2c0-1.3,0.3-2,1-2c0.7,0,1,0.7,1,2c0,2-0.4,4-1,5.9C72.9,22.2,72.5,20.2,72.5,18.2z"/>
	<path class="st0" d="M24.3,3.1C13.1,3.1,4,12.2,4,23.4c0,11.2,9.1,20.3,20.3,20.3c11.2,0,20.3-9.1,20.3-20.3
		C44.6,12.2,35.5,3.1,24.3,3.1z M29.4,8.2c0.4-0.4,1.1-0.4,1.6,0c1.6,1.5,4.9,5.2,4.9,8.5c0,3.1-2.5,5.1-5.7,5.1
		c-3.2,0-5.7-2-5.7-5.1C24.4,13.4,27.8,9.8,29.4,8.2z M14.9,17.7c0.3-0.4,0.9-0.5,1.3-0.2c1,0.8,2.7,1,4.2,0c0.4-0.3,1-0.2,1.3,0.2
		c0.3,0.4,0.2,1-0.2,1.3c-1,0.7-2.1,1-3.2,1c-1.1,0-2.3-0.3-3.2-1C14.6,18.7,14.6,18.1,14.9,17.7z M29.7,37.6c-2.1,0-4-1.1-5.5-2.8
		c-1.4,1.7-3.3,2.8-5.5,2.8c-4,0-6.4-2.8-6.4-7.3c0-2,0.5-4.2,1.4-6c0.3-0.6,0.9-0.9,1.5-0.7c0.6,0.2,0.9,0.9,0.6,1.5
		c-0.7,1.4-1.2,3.2-1.2,5.1c0,3.3,1.6,5.3,4.2,5.3c1.7,0,3.2-1,4.3-2.6c-1-1.7-1.5-3.8-1.5-5.9c0-2,1-3.3,2.7-3.3
		c1.7,0,2.7,1.3,2.7,3.3c0,2.1-0.6,4.2-1.5,5.9c1.1,1.6,2.6,2.6,4.3,2.6c2.6,0,4.2-2.1,4.2-5.3c0-1.9-0.6-3.7-1.2-5.1
		c-0.3-0.6,0-1.3,0.6-1.5c0.6-0.2,1.2,0.1,1.5,0.7c0.9,1.8,1.4,4,1.4,6C36.2,34.8,33.7,37.6,29.7,37.6z"/>
</g>
</svg>
