<?xml version="1.0" encoding="utf-8"?>
<!-- Generator: Adobe Illustrator 23.0.3, SVG Export Plug-In . SVG Version: 6.00 Build 0)  -->
<svg version="1.1" id="Camada_1" xmlns="http://www.w3.org/2000/svg" xmlns:xlink="http://www.w3.org/1999/xlink" x="0px" y="0px"
	 viewBox="0 0 300 600" style="enable-background:new 0 0 300 600;" xml:space="preserve">
<style type="text/css">
	.st0{fill-rule:evenodd;clip-rule:evenodd;fill:#989898;}
	.st1{fill-rule:evenodd;clip-rule:evenodd;fill:none;}
	.st2{fill:#989898;}
	.st3{font-family:'Montserrat-Regular';}
	.st4{font-size:11.468px;}
	.st5{font-family:'Montserrat-SemiBold';}
	.st6{fill:#6A4322;}
	.st7{font-family:'Montserrat-Bold';}
	.st8{font-size:9.4241px;}
</style>
<path class="st0" d="M139.3,56c-0.6-0.5-0.5-2.2-0.9-2.8c-0.4-0.6-1.5-1.5-2.2-1.8c-0.7-0.3-2.3,0.2-2.8-0.3
	c-0.3-0.3-0.1-1.2-0.3-1.6c-0.2-0.5-0.7-1.4-1.1-1.8c-0.6-0.5-2.1-1.7-2.7-1.3c-0.3,0.2,0.2,1.3-0.1,1.6c-0.4,0.3-1.6-0.7-2-0.4
	c-0.7,0.7,0.4,2.9,0.6,3.9c0.2,0.6,0.9,1.7,0.9,2.3c0,1.5-1.7,4.3-2.5,5.7c-0.2,0.3-0.7,0.9-0.9,1.2c-0.4,0.5-0.9,1.6-1.4,2
	c-1,0.8-3.4,1.5-4.6,1.8c-2,0.4-6.2,0.1-8.3,0.2c-1.3,0.1-4,0.3-5.3,0.5c-0.9,0.1-2.7,1-3.6,0.7c-0.8-0.2-1.9-1.5-2.3-2.2
	c-0.6-1-1.3-3.3-1.6-4.5c-0.3-1.3,0.9-5.2-0.4-5.3c-1.1-0.1-0.9,3.2-1,4.3c0,1.3,0.5,3.9,1,5.2c0.4,1.1,2.3,3,2.3,4.2
	c0,0.8-1.4,2.1-1.7,2.9c-0.5,1.3-0.7,4.2-1.1,5.5c-0.2,0.8-0.8,2.5-1.2,3.2c-0.5,0.8-2.4,1.7-2.7,2.6c-0.7,1.7-0.2,5.6,0.4,7.3
	c0.2,0.5,1,1.5,1.5,1.8c0.6,0.3,2.1,0.5,2.5,0c0.2-0.3-0.1-1-0.3-1.3c-0.2-0.4-1.3-0.8-1.5-1.2c-0.4-0.8-0.5-2.8-0.1-3.6
	c0.1-0.2,0.5-0.4,0.6-0.3c0.8,0.4-0.1,2.8,0.3,3.6c0.2,0.5,1,1.3,1.5,1.5c0.6,0.2,2,0.4,2.5,0c0.2-0.2,0.1-0.7,0-1
	c-0.1-0.2-0.4-0.5-0.5-0.6c-0.3-0.4-1.2-1.1-1.4-1.6c-0.2-0.7,0-2.1,0.3-2.8c0.2-0.6,0.8-1.7,1.2-2.1c1.7-1.8,6-4.8,8.4-5.5
	c3.1-0.9,10.6,0.1,12.8,2.5c1.6,1.8-0.2,7.3,0.7,9.5c0.2,0.5,0.8,1.4,1.3,1.7c0.4,0.2,1.3,0,1.8,0c0.2,0,0.7-0.1,1,0
	c0.4,0.1,0.9,0.8,1.3,0.9c0.7,0.2,2.4,0.5,2.9,0c0.2-0.2,0-0.9-0.1-1.1c-0.3-0.5-1.5-0.9-1.8-1.4c-0.6-1.3-0.2-4.3-0.1-5.8
	c0.1-1.2,0.4-3.6,0.9-4.7c0.6-1.5,2.9-3.9,3.4-5.3c0.8-2.2,0.4-7.2,1.4-9.4c0.3-0.6,1.1-1.6,1.7-1.9c0.5-0.3,1.8-0.4,2.5-0.6
	c0.5-0.2,1.7-0.4,2.1-0.8c0.4-0.3,1-1.3,1.1-1.8c0.1-0.4,0.4-1.3,0.2-1.6C141.4,55.7,139.8,56.4,139.3,56z M125.4,87.8
	C125.4,87.8,125.4,87.8,125.4,87.8c-0.5-0.2-0.7-1.2-0.7-1.7c-0.2-1.1-0.8-4.1,0.2-4.4c0.2-0.1,0.4,0.5,0.5,0.6c0,0,0.1,0.1,0.1,0.2
	c0.3,1-0.2,3.1,0.1,4.1c0.1,0.3,0.7,0.9,0.6,1.1C126.1,87.9,125.6,87.7,125.4,87.8z"/>
<path class="st0" d="M76.6,57.1c-0.4-0.5-0.1-1.9-0.4-2.5c-0.2-0.4-0.7-1.1-1-1.4c-0.7-0.5-2.6-0.3-3.2-0.9c-0.3-0.4-0.1-1.6-0.2-2
	c-0.1-0.4-0.3-1.7-0.7-1.7c-0.4,0-0.4,1.3-0.7,1.3c-0.5,0-0.6-1.8-1.2-1.8c-0.5,0-1,1.3-1.2,1.7c-0.4,0.8-0.5,2.8-0.9,3.6
	c-0.4,0.7-1.7,1.5-2.1,2.1c-1.3,1.7-2.4,6.1-4,7.5c-0.1,0.1-0.4,0.1-0.5,0.2c-0.9,0.4-2.7,1.2-3.6,1.4c-2.6,0.5-8-0.3-10.7-0.3
	c-1.9,0-6.1,1.5-7.6,0.4c-0.8-0.6-1.2-2.8-1.2-3.7c0-1,0.5-3,0.9-3.9c0.4-1,2.9-2.7,2.4-3.7c-0.2-0.5-1.6-0.4-2.1-0.3
	c-0.9,0.3-2.5,1.6-3.1,2.4c-0.8,1.1-1.8,3.7-2,5.1c-0.2,1.1,0,3.2,0.3,4.3c0.1,0.6,0.9,1.6,0.8,2.1c-0.1,0.8-1.8,1.9-2.1,2.7
	c-0.3,0.9,0.1,3-0.1,4c-0.4,1.6-2.6,4.4-2.9,6c-0.3,1.5-0.2,4.6,0.1,6c0.2,0.9,0.7,3,1.5,3.5c0.8,0.5,3.1,0.7,3.7,0
	c0.2-0.2,0.1-0.9,0-1.2c-0.2-0.6-1.4-1.4-1.6-2c-0.3-0.8-0.2-2.6,0-3.5c0.1-0.4,0.4-1.5,0.8-1.5c1,0.2,0.2,3.1,0.5,4
	c0.3,0.8,1.3,2.5,2.1,2.9c0.7,0.4,2.8,0.6,3.3,0c0.2-0.2,0.1-1,0-1.3c-0.2-0.5-0.8-1.5-1.2-1.9c-0.2-0.2-0.8-0.3-0.9-0.5
	c-0.5-0.8-0.3-3,0-3.9c0.2-0.4,0.8-1.2,1.2-1.3c2.2-0.9,7,0.5,9.4,0.7c1.9,0.1,6.3-1.1,7.6,0.3c0.5,0.5,0,2.3,0.1,3
	c0.1,0.7,0.4,2.1,0.7,2.8c0.3,0.6,1,1.9,1.7,2.2c0.5,0.2,1.6,0,2.1,0c0.4,0,1.1-0.1,1.5,0c0.5,0.2,1.3,1.1,1.9,1.3
	c0.9,0.3,3.3,0.9,3.8,0.1c0.2-0.3-0.3-1.2-0.6-1.6c-0.4-0.6-2-1.3-2.3-2c-0.6-1.5-0.4-5,0.3-6.4c0.3-0.6,1.6-1.2,2-1.8
	c0.5-0.6,1.1-2.1,1.4-2.8c1-2.6,0.9-9.1,3.3-10.6c0.3-0.2,1.2,0.3,1.6,0.3c0.6,0,1.9-0.3,2.5-0.6c0.6-0.3,1.8-1.2,2.2-1.8
	c0.4-0.4,1.1-1.5,1.2-2c0.2-0.6,0.4-1.9,0-2.3C78.8,57.3,77,57.7,76.6,57.1z M60.6,85.5c-0.1,0-0.2-0.3-0.3-0.5
	c-0.1-0.2-0.5-0.7-0.6-0.9c-0.2-0.7-0.5-2.5,0.1-2.7c0.2-0.1,0.3,0.3,0.5,0.5c0.1,0.1,0.2,0.2,0.3,0.3c0.3,0.6,0.4,2.1,0.3,2.8
	C60.9,85.1,60.8,85.5,60.6,85.5z"/>
<g>
	<path class="st0" d="M186.6,81.2L186.6,81.2c0,0.1,0.1,0.1,0.2,0.2c0.1,0.7,0.2,1.3,0.1,2.2c0.1-0.1,0.3-0.5,0.3-0.7
		c0.1,0.6,0.2,1.4,0.2,2.2c-0.1-0.1-0.3-0.2-0.4-0.2c-0.4-0.4-0.6-1.1-0.6-1.9c0,0.1,0.2,0.3,0.3,0.3
		C186.5,82.5,186.7,81.8,186.6,81.2L186.6,81.2z M160.4,80.9c0,0.6,0,1.1-0.2,1.8c0.2-0.2,0.3-0.3,0.4-0.5c-0.1,1,0.2,1.7,0.1,2.8
		c0.2-0.2,0.2-0.4,0.3-0.6c0.2,0.6,0.5,1.9,1,2.2c0.3,1,2.1,1.2,3.3,1.1c0,0,0.1,0,0.1,0.1c0,0,0,0,0,0c0,0,0,0,0,0c0,0,0,0,0,0
		c0.3,0,0.6-0.1,0.8-0.2c0.1,0,0.2,0,0.2,0.1c0,0,0,0,0,0c0,0,0,0,0,0c0-0.1-0.1-0.1-0.1-0.2c0,0,0-0.1,0-0.1c0,0,0.1,0,0.1,0
		c0,0,0,0,0,0c0,0,0,0,0,0c0-0.1-0.1-0.2-0.2-0.2c-0.2-2.5-1.8-2.1-2.2-3.5c0.1,0.1,0.3,0.2,0.4,0.3c-0.4-0.9-0.1-1.8-0.4-2.8
		c0.1,0.1,0.2,0.3,0.3,0.3c-0.2-1.1,0.4-1.6,0.7-2.4c0.1,0,0.2,0,0.2,0l0,0.1c0,0,0,0,0-0.1c0.9,0.1,1.8,0.2,2.8,0.1
		c-0.2,0.1-0.3,0.2-0.4,0.3c1.1-0.2,2.6,0.2,3.9,0c-0.1,0.1-0.4,0.2-0.4,0.3c1-0.2,2.3,0.1,3.3-0.1c-0.2,0.1-0.3,0.2-0.4,0.3
		c1.1-0.2,2.3,0,3.4-0.3c-0.2,0.1-0.3,0.2-0.4,0.3c0.9-0.3,2.2-0.1,3.1-0.3c-0.3,0.1-0.5,0.2-0.6,0.3c0.8-0.1,2,0,2.8,0.1
		c0,0.6,0.1,1.2-0.1,2c0.1-0.1,0.3-0.5,0.4-0.7c0,0.7,0.1,1.6-0.1,2.5c0.1-0.1,0.2-0.3,0.3-0.5c0,1.3,0.5,2.4,0.8,3
		c0.6,1.1,1.5,1.4,3.1,1.3c0.2,0,0.4,0,0.6,0c0.1,0,0.2,0.1,0.2,0.1c0,0,0,0,0,0c0,0,0,0,0,0c0,0,0,0,0-0.1c0.3,0,0.5,0,0.6-0.1
		c0,0,0,0,0,0c0,0,0,0,0,0c0.1,0,0.2,0,0.3,0c0.1,0.1,0.1,0.2,0.2,0.3c0.7,1.1,1.6,1.4,3.2,1.3c0.2,0,0.4,0,0.6,0
		c0.1,0,0.2,0.1,0.2,0.1c0,0,0,0,0,0c0,0,0,0,0,0c0,0,0,0,0-0.1c0.3,0,0.5,0,0.6-0.1c0,0,0,0,0,0c0,0,0,0,0,0c0.1,0,0.3,0,0.4,0.1
		c0,0,0,0,0,0c0,0,0,0,0,0c0-0.1-0.1-0.2-0.2-0.3c0.1,0,0.1,0,0.2,0.1c0,0,0,0,0,0c0,0,0,0,0,0c-0.1-0.2-0.2-0.3-0.3-0.4
		c0-0.1,0-0.1,0-0.2c-0.2-0.8-1-1.5-1.8-1.9c-0.5-0.4-0.7-1.1-0.8-1.9c0,0.1,0.2,0.3,0.3,0.3c-0.2-0.7-0.1-1.4-0.3-2.1
		c0.1,0.1,0.2,0.3,0.3,0.4c-0.2-0.8,0-1.8-0.2-2.5c0.1,0.1,0.2,0.3,0.3,0.4c-0.1-0.9-0.1-1.4,0-1.8c0.5-0.3,0.9-0.7,1.2-1.2
		c-0.1,0.2-0.1,0.4-0.1,0.6c0.7-1.2,1.7-1.7,2.2-3.7c0,0.2,0,0.4,0.1,0.5c0-1.6,0.8-2.3,0.9-3.5c0,0.2,0.1,0.3,0.2,0.5
		c-0.2-1.5,0.3-2.1,0.4-3.1c0,0.1,0.1,0.3,0.1,0.4c-0.1-1.1,0.5-1.8,0.5-2.8c0,0.2,0.1,0.3,0.1,0.5c0.1-1.3,0.7-2.7,1.1-3.3
		c0.6,0.1,1.2,0.1,1.8,0.1c-0.1,0.1-0.2,0.2-0.2,0.3c0.5-0.5,1.4-0.3,2-0.7c-0.1,0.1-0.2,0.3-0.2,0.4c0.3-0.5,1.2-0.8,1.7-1.3
		c-0.1,0.1-0.1,0.4-0.1,0.6c0.1-0.5,1.3-1,1.5-1.9c0.7-0.7,1.1-1.5,0.9-2.6c0.2-1,0-1.4-0.5-1.5c-1.6-0.4-2.3-0.8-2.3-1.4
		c0-1.1-0.6-2.3-1.5-3c-0.3-0.2-0.6-0.4-0.7-0.6c0,0.1,0.1,0.3,0.2,0.4c-0.6-0.5-1.4-0.6-1.9-1.1c0,0.2,0.1,0.3,0.3,0.5
		c-0.3-0.1-0.6-0.1-0.9-0.2c0-0.8,0-1.7-0.3-2.4c-0.2-0.8-1-1.2-1.3-0.3c0,0.1-0.1,0.3-0.2,0.4c0-0.2-0.1-0.4-0.1-0.6
		c-0.2-0.6-0.7-1-1-0.7c-0.3,0.3-0.5,1-0.8,1.5c0.1,0,0.2-0.1,0.3-0.2c-0.2,0.5-0.6,1-0.9,1.5c0.1,0,0.2-0.1,0.3-0.1
		c-0.1,0.3-0.4,0.9-0.9,1.3c0.1,0,0.3-0.1,0.4-0.2c-0.2,0.2-0.4,0.6-0.5,1c-3,2.3-4.1,8.8-7.3,10.2c-5.4,2.2-14.3-0.3-20.8,1
		c-1.9-2.9-1.4-6.9,1.6-10.2c0.9-0.7,1-1.3,0.2-1.4c-0.3,0-1.2,0.1-1.5,0.3c0.1-0.1,0.2-0.2,0.2-0.4c-0.6,0.4-1.4,0.7-2,1.3
		c0.1-0.2,0.1-0.3,0.1-0.5c-0.4,0.7-1.2,1.2-1.6,2c0-0.2,0-0.3-0.1-0.5c-0.2,0.9-0.9,1.6-1,2.6c-0.1-0.2-0.2-0.4-0.3-0.6
		c0,1.1-0.5,2.4-0.5,3.7c-0.1-0.2-0.2-0.3-0.4-0.4c0.2,1,0,2,0.3,3.2c-0.2-0.2-0.4-0.3-0.6-0.4c0.6,0.6,0.6,2,1.3,3.5
		c-0.4,0.4-0.7,0.8-1.1,1.1c0.1,0,0.2,0,0.3-0.1c-0.6,1-0.7,2-1.3,2.7c0.1-0.1,0.3-0.1,0.4-0.2c-0.2,0.9-0.1,1.8-0.7,2.7
		c0.2-0.1,0.3-0.2,0.4-0.4c-0.4,0.8-0.3,1.8-1,2.7c0.1-0.1,0.3-0.1,0.4-0.2c-0.6,0.7-0.8,1.5-1.6,2.1c0.1,0,0.3-0.1,0.4-0.2
		c-0.4,0.5-0.3,1-1.2,1.8c0.2,0,0.3-0.1,0.4-0.2c-0.3,1.1,0,1.7-0.7,3c0.2-0.1,0.3-0.2,0.5-0.4c-0.3,1-0.1,1.9-0.5,3
		c0.2-0.2,0.3-0.3,0.4-0.5c-0.2,1,0.1,1.7-0.2,2.8c0.2-0.2,0.3-0.4,0.3-0.6c0.1,0.6,0.4,1.9,0.8,2.2c0.3,1,2,1.2,3.2,1.1
		c0,0,0.1,0,0.1,0.1c0,0,0,0,0,0c0,0,0,0,0,0c0,0,0,0,0,0c0.3,0,0.6-0.1,0.8-0.2c0.1,0,0.2,0,0.2,0.1c0,0,0,0,0,0c0,0,0,0,0,0
		c0-0.1-0.1-0.1-0.1-0.2c0,0,0-0.1,0-0.1c0,0,0.1,0,0.1,0c0,0,0,0,0,0c0,0,0,0,0,0c0-0.1-0.1-0.2-0.2-0.2c0-2.5-1.7-2.1-1.9-3.5
		c0.1,0.1,0.2,0.2,0.4,0.3c-0.4-0.8,0-1.9-0.2-3c0.1,0.1,0.1,0.3,0.2,0.4C159.8,81.9,160.1,81.4,160.4,80.9L160.4,80.9z M187.5,85.1
		c0-0.1,0.1-0.2,0.1-0.3c0,0.2,0,0.3,0.1,0.5C187.6,85.2,187.5,85.2,187.5,85.1z"/>
</g>
<rect x="29.4" y="101.8" class="st1" width="279.4" height="44"/>
<text transform="matrix(1 0 0 1 29.3521 110.3256)"><tspan x="0" y="0" class="st2 st3 st4">Cães com porte semelhante ao</tspan><tspan x="0" y="13.8" class="st2 st3 st4">do Pinscher, Chihuahua e Yorkshire.</tspan><tspan x="0" y="27.5" class="st2 st5 st4">Tapete: 30x45cm, bandeja: 43x56cm*</tspan></text>
<rect x="29.4" y="28.4" class="st1" width="46.7" height="12.3"/>
<text transform="matrix(1 0 0 1 29.3521 35.3791)" class="st6 st7 st8">PP - Mini</text>
<rect x="29.4" y="170.5" class="st1" width="80.6" height="20.2"/>
<text transform="matrix(1 0 0 1 29.3521 177.4862)" class="st6 st7 st8">P - Pequeno</text>
<rect x="29.4" y="314.5" class="st1" width="46.7" height="12.3"/>
<text transform="matrix(1 0 0 1 29.3521 321.4612)" class="st6 st7 st8">M - Médio</text>
<rect x="29.4" y="460.4" class="st1" width="91.5" height="23.3"/>
<text transform="matrix(1 0 0 1 29.3521 467.4311)" class="st6 st7 st8">G - Grande</text>
<rect x="29.4" y="241.7" class="st1" width="279.4" height="54.8"/>
<text transform="matrix(1 0 0 1 29.3516 250.2054)"><tspan x="0" y="0" class="st2 st3 st4">Cães com porte semelhante ao</tspan><tspan x="0" y="13.8" class="st2 st3 st4">do Pug, Shih Tzu, Lhasa e Maltês</tspan><tspan x="0" y="27.5" class="st2 st5 st4">Tapete: 60x45cm, bandeja: 71x56cm*.</tspan></text>
<rect x="29.4" y="388.6" class="st1" width="279.4" height="48.2"/>
<text transform="matrix(1 0 0 1 29.3516 397.0936)"><tspan x="0" y="0" class="st2 st3 st4">Cães com porte semelhante ao do Bulldog </tspan><tspan x="0" y="13.8" class="st2 st3 st4">Francês, Dachshund, Beagle e Cocker.</tspan><tspan x="0" y="27.5" class="st2 st5 st4">Tapete: 60x60cm, bandeja: 71x71cm*</tspan></text>
<rect x="29.4" y="531.7" class="st1" width="279.4" height="55.1"/>
<text transform="matrix(1 0 0 1 29.3516 540.2164)"><tspan x="0" y="0" class="st2 st3 st4">Cães com porte semelhante ao do Golden, </tspan><tspan x="0" y="13.8" class="st2 st3 st4">Border Collie, Bull Terrier e Bernese</tspan><tspan x="0" y="27.5" class="st2 st5 st4">Tapete: 60x90cm, bandeja: 71x103cm*</tspan></text>
<g>
	<g>
		<path class="st0" d="M31.2,221.1c-0.4,0.5-0.8,0.7-0.9,1.4c-0.2,0.7,0.3,1.4,0.2,2.3c-0.1,0.7-0.1,1.6-0.1,2.4
			c0,0.9,0.1,2.9,1,3.5c0.3,0.9,1.9,1.1,3,1c0,0,0.1,0,0.1,0c0,0,0,0,0,0c0,0,0,0,0,0l0,0c0.3,0,0.6-0.1,0.7-0.2
			c0.1,0,0.1,0,0.2,0.1c0,0,0,0,0,0c0,0,0,0,0,0c0-0.1-0.1-0.1-0.1-0.2l0-0.1c0.1,0,0.1,0,0.1,0.1c0,0,0,0,0,0c0,0,0,0,0,0
			c0-0.1-0.1-0.2-0.2-0.3c-0.1-1.5-0.8-1.8-1.4-2.3c-0.2-0.1-0.3-0.3-0.3-0.7c-0.2-1.4,0-2.5,0.4-3.7c0.3-0.7,0.8-1.4,1.4-2.1
			c0.1,0.3,0.2,0.7,0.1,1.1c0,0.7-0.1,1.6,0,2.4c0,0.9,0.1,2.9,1.1,3.5c0.3,0.9,1.9,1.1,3,1c0,0,0.1,0,0.1,0c0,0,0,0,0,0
			c0,0,0,0,0,0l0,0c0.3,0,0.6-0.1,0.7-0.2c0.1,0,0.1,0,0.2,0.1c0,0,0,0,0,0c0,0,0,0,0,0c0-0.1-0.1-0.1-0.1-0.2l0-0.1
			c0.1,0,0.1,0,0.1,0.1c0,0,0,0,0,0c0,0,0,0,0,0c0-0.1-0.1-0.2-0.2-0.3c-0.1-1.5-0.9-1.8-1.5-2.3c-0.2-0.1-0.3-0.3-0.4-0.7
			c-0.8-4,2-6.1,4.5-8.7c3.7,0.9,8.6,1.7,12.4,1.9c0.1,1.7,0.2,3.4-0.1,5.3c-0.1,0.5,0.1,0.7,0.4,0.8c0,1.2,0.3,2.3,0.6,2.9
			c0.6,1,1.5,1.3,3,1.3c0.2,0,0.3,0,0.4,0c0.1,0,0.2,0.1,0.2,0.1c0,0,0,0,0,0c0,0,0,0,0,0c0,0,0,0,0-0.1c0.2,0,0.4,0,0.5,0
			c0,0.1,0.1,0.1,0.1,0.2c0.7,1,1.5,1.3,3.1,1.3c0.2,0,0.3,0,0.4,0c0.1,0,0.2,0.1,0.2,0.1c0,0,0,0,0,0c0,0,0,0,0,0c0,0,0,0,0-0.1
			c0.3,0,0.5,0,0.7-0.1c0.1,0,0.2,0,0.3,0.1c0,0,0,0,0,0c0,0,0,0,0,0c0-0.1-0.1-0.2-0.1-0.2l0,0c0.1,0,0.1,0,0.1,0c0,0,0,0,0,0
			c0,0,0,0,0,0c0-0.1-0.1-0.2-0.2-0.2c0-0.1,0-0.2-0.1-0.3c-0.2-0.7-0.9-1.5-1.7-1.8c-0.6-0.7-0.7-1.4-0.7-2.4
			c-0.1-2.7,0.5-5.9,1.1-8.6c3.6-2.5,3.7-6.9,5.2-11.6c1.4-0.2,2.2-1,2.9-2c1.9-0.5,3.3-1.7,3.1-3.5c0.5-0.8,0.6-2-0.2-2.6
			c-0.1-0.5-0.3-0.9-0.6-1.1c-0.1-0.7-0.3-1.3-0.9-1.8c-0.5-1.8-2.4-2.9-4.5-2.9c-0.2,0-0.4,0-0.6,0c0-0.2-0.1-0.4-0.1-0.6
			c-0.1-0.2-0.3-0.3-0.5-0.3c-0.3,0-0.7,0.3-1,0.4c-0.7,0.3-1.4,0.5-2.2,0.5c-0.9,0-1.4,0.5-1.2,1c0,0.1,0.1,0.3,0.2,0.5
			c-1,0.7-1.9,1.7-2.8,3.1c-0.9,1.1-1.2,1.6-2.2,3c-0.8,0.2-1.8,1-2.1,1.5c-1.1,0.2-2.3,1-2.9,1.8c-3.4,0.2-6.6-0.2-9.3-0.3
			c0.1-3.9-7.5-2.8-8.1,2.8C32.6,210.2,34.2,217.7,31.2,221.1L31.2,221.1z M59.6,221.8c0.2,1.5,0.3,3.1,0.2,4.8
			c0,0.5,0.1,0.7,0.4,0.8c0,0.1,0,0.2,0,0.4c-0.2-0.1-0.3-0.2-0.5-0.3c-0.6-0.7-0.6-1.4-0.5-2.4C59.3,224.1,59.4,222.9,59.6,221.8z"
			/>
	</g>
</g>
<g>
	<g>
		<path class="st2" d="M133.5,212.4c-0.7-0.1-1.8-1.2-2.3-1.7c-0.3-0.3,0,0.3-1.6-0.2c-3.2-1-6.3-4.3-9-4.3
			c-0.9-1.2-1.6-4.1-0.1-5.5c1.3-1.3,1.5-3.8,3.8-5c0.6-0.3,3.1-1.5,3.9-1.4c1.2,0,2.4,1.2,3.4,2.1c2.2,2.2,5.8,4.8,3.8,8.7
			C134.9,206,133.9,212.3,133.5,212.4L133.5,212.4z M133.5,212.4"/>
		<path class="st2" d="M109.8,221.6c-0.1-0.9-0.2-2.5-0.5-3.2c-1.8-3.8-10.4-5.8-12.7-0.9c0.1-1.1,0.2-0.6,0.1-0.4
			c-0.5,1.6-0.2,2.4,0,3.4c0.1-0.3,0.3-0.7,0.2-1.2c0.2,0.4,0.3,1,0.2,1.5c-0.4,1-1.4,1-1.1,2.6c0.2-0.2,0-0.4,0.6-0.5
			c-0.5,1.1-1.1,2.1-1.3,3.5c0.2-0.4,0.3-0.7,0.9-0.6c-0.7,0.5-0.8,1.3-0.8,2.3c0.1-0.1-0.4-0.5,0.4-0.3c-0.4,0.7-0.7,1.8-0.8,2.7
			c0.1-0.3,0.1-0.7,0.9-0.9c-0.3,0.6-0.5,0.8-0.3,1.7c0.1,0.4,0.2,0.9,0,1.4c0.5-0.3,1-0.8,1.2-1.4c0.1,0.6,0.4,1-0.2,1.6
			c0.4-0.4,0.9-0.5,1.2-1.1c0,0.6,0.3,1.3,0.9,1.2c-0.1-0.4-0.1-0.8-0.1-1.2c0.4,0.6,1.2,1.2,2,1.5c-0.2-0.1-1-0.5-0.5-1.3
			c0.3,0.7,2.4,2,1.4,0.5c0.3,0.5,0.8,0.7,1.5,0.1c-0.1-0.1-0.7-0.2-0.4-1.1c0.3,0.4,0.5,0.9,1.1,0.9c-0.4-0.8-0.2-2.1-0.3-3.1
			c0.2,0.5,0.4,1,0.8,1.5c0-0.8,0.3-1.5,0.5-2.4c0.1,0.6,0.2,1.1,0.3,1.8c0.6-0.9,1-2.5,1.3-3.7c0.2,1,0.3,1.9-0.3,2.8
			c0.7-1.1,1.5-2.6,1-4c0.5,1,0.8,2.5,0.6,3.8c0.8-1.1,1.4-3.3,0.9-4.9c0.2,0.9,0.4,1.8,0.7,2.7
			C110.3,225.5,109.8,223.4,109.8,221.6L109.8,221.6z M109.8,221.6"/>
		<path class="st2" d="M134.1,209.9c-1.3-0.6-2.2-1.4-3.2-2.5c-2.4-2.4-10.6-2.6-14.1-1.8c0.2,0.9,0.3,4.1-0.4,5.4
			c-1.5,3.1,0.8,8.6,1.9,10.9c0.2,0.5,0.2,0.9,0.5,1.4c-0.2,1-0.6,2.1-1.3,3.1c0.5,0.1,1-0.4,1.5-0.7c-0.4,1.4-0.8,2-1.5,2.9
			c0.7,0.4,1.6-0.4,1.6-0.4c-0.5,1.3-0.7,1.4-1.4,2.3c0.2-0.1,0.7,0,1.6-0.8c0,0.6,0,1.1,0.2,1.7v0.8c0.9-0.2,1.3-0.1,2.1-1
			c-0.2,0.3-0.3,0.9-0.7,1.2c1,0,1.8-0.1,2.9-0.8v0.2l-0.5,0.8c0.9-0.1,1.8-0.3,2.3-1.1c0,0.5,0.7,0.7-0.3,1.4
			c1.1-0.3,1.8-0.4,2.2-1.2c0,0.5,0.7,0.5,0,1.3c0.7-0.5,1.3-0.7,1.5-1.8c0.4,0.8,0.6,1,1.5,1.3c-0.1-0.4-0.6-0.4-0.3-1.2
			c0.6,1.1,1.3,1.2,2.1,1.3c0.1-0.3-0.5,0.2-0.3-1c0.7,0.5,1.2,0.8,2.4,0.5c-0.3-0.3-0.6,0.1-0.9-1c0.6,0.3,0.6,0.5,1.5,0.7
			c-0.2-0.9-0.9-1.4-0.7-2.1c0.7,0.3,1.1,0.4,1.3,0.3c-0.9-1.2-0.8-1.7-1.2-2.9c0,0,0.8,0.5,1.3,0.3c-0.5-0.6-1.5-2.1-1.4-2.7
			c0,0,0.6,0.2,1.1,0.7c-0.1-0.7-0.8-2.3-0.8-3.1c0.5-0.4,0.8,0.7,1.3-0.2c-0.5-0.3-0.8-1.2-1.3-2c0.7,0,0.9,0.6,1.1,0.2
			c-0.2-0.3-0.7-2.2-1.1-3.8c0.4,0.2,0.6,0.4,1.3,0.5c-0.6-0.8-1.3-2.2-1.5-3.4c0.3,0.3,0.6,0.3,1.1,0.2
			C134.6,212.8,134.9,211.4,134.1,209.9L134.1,209.9z M134.1,209.9"/>
		<path class="st2" d="M96.6,217.1c0.1,0.9,0.2,1.3,0.7,2c-0.2-0.9,0.1-1.8,0.4-2.8c0,1.4-0.3,2.5,0.3,3.7c0-1.2,0.6-2.8,1.7-3.3
			c-0.5,0.7-0.6,1.9-0.5,3c0.2-1.1,1.7-1.9,3-2c0,0.9,0.2,1.8,0.1,2.7c0.6-0.8,0.8-1.9,1.8-2.3c0.7,0.3,1.3,1.1,0.9,1.9
			c0.4-0.6,0.8-1.2,0.4-2.2c1,0.5,2.1,2.1,2.4,3.3c0.1-0.2,0.2-1.3-0.1-2c0.7,0.5,1,0.8,1.4,2.5c0.1,1.8,0.9,3.6,0.1,4.8
			c0.1,0.1,0.4,0.8,0.9,1.7c-0.2-1.1,0-2.1,0.2-3.2c0,1.3,0.3,2.4,0.9,3.4c-0.2-1.2-0.3-2.4,0.2-3.5c0,1.4,0.4,2.6,0.8,3.9
			c-0.1-1.1-0.1-2.5,0.3-3.6c0.2,1.3,0.3,2.7,1,3.6c-0.2-1.1-0.3-3,0.5-3.5c-0.2,1.1,0.2,2.2,0.8,3.2c-0.2-1.1-0.4-2.6,0.3-3.5
			c0,1.3,0.2,2.7,0.9,3.6c-0.4-1,0-2.6,0.3-3.6c-0.2,1.3,0.2,2.7,0.6,3.9c-0.2-1.1,0.1-2.6-0.1-3.7c0.2,1.4-0.1,2.7,1,3.7
			c-0.1-0.7-0.1-1.8-0.1-2.3c1.2-2.7,1-5.3,0.2-8.4c0.5,1,1.2,2.4,0.6,3.5c2-1,0.1-6.2-0.2-7.8c0.7,1,1.4,2.5,1,4
			c2.7-3.6-3.5-8.3-2.2-12c-2,0.3-3.8,0-5.4,0c-2.5-0.7-10.3,0.7-11.7,1.3c-1,0.6-2.1,2-2.6,3.5c0.2-0.2,0.4-0.2,1.2-0.6
			c-1.4,0.9-1.7,3-1.6,3.7c0.2-0.2-0.4-0.2,0.4-0.6c-0.9,1.4-1.6,2.9-1.1,4.6C96.6,216.5,96.7,216.9,96.6,217.1L96.6,217.1z
			 M96.6,217.1"/>
		<path class="st2" d="M97.3,212c0.4-1,0.9-1.4,1.5-2.3c-0.1,0-0.7,0.5-1,0.6c0.2-1,1.5-2.2,2.4-3.3c1,1.2,1.3,3.1,5.1,5
			c-0.9-0.7-1.7-2.1-2.2-3.5c1.7,1.4,4.3,3.3,3.8,6.1c0.8-1.8,0.4-4.4-1-6c2,1.6,3.8,7.3,2.1,10.2c1.9-2.1,2-6,1.4-9.5
			c1.3,1.8,2.6,5.7,0.6,7.6c2.7-1.4,1.8-7.2-0.3-9.6c1.5,0.8,3,4.1,2.4,6.2c0.8-4.2-0.7-7.7-4.4-9.5c2,0.4,4.4,2.8,5,4.7
			c0-4.7-5.1-7.6-9.2-6.8c1.9-1,5.7-0.4,7,1.6c-1-3.8-7.4-4.2-9.5-2.6c-2.5,0.1-5,3.1-4.5,6c0.1-1,0.3-1.6,1-2
			C95.9,207,96.1,210.2,97.3,212L97.3,212z M97.3,212"/>
		<path class="st2" d="M134.2,195.7c-0.4-0.3-0.4-0.2-0.8-0.5c-0.8-0.4-1.7-0.8-2.8-1c-1.8,0.7-0.5,3.2,1.2,3.2
			c3.2,2.4,3.3,5.5,2.7,7.5c-1.9,3.5,2.1,2.6,3.8,1.8c0.1-0.7,0.2-1.5,0.1-2.5C138.2,202.3,137.5,198,134.2,195.7L134.2,195.7z
			 M134.2,195.7"/>
		<path class="st2" d="M116.8,203.7c0.1-1.5,1.4-6.1,4.8-8.4c0.4-0.4,0.7-0.4,1.2-0.6c0.6-0.3,1.3-0.5,2.1-0.5
			c1.5,0.7,0.3,3.3-1.1,3.4c-3.7,2.2-3.5,5.7-2.9,7.8c-0.1,2.9-1.9,1.2-3.9,1C116.8,205.6,116.7,204.7,116.8,203.7L116.8,203.7z
			 M116.8,203.7"/>
		<path class="st2" d="M127.9,193.3c0.6,1.4,1.7,0.6,2.6,0.5c1.4-0.2,3.1,0.9,3.5,2.6c0.3-1.9-0.6-2.9-2-3.3c-1-0.6-0.6-1.5,0.5-2.1
			c0.6-0.3,1.1-0.2,1.9,0.2C132.5,188.6,128,191.1,127.9,193.3L127.9,193.3z M127.9,193.3"/>
		<path class="st2" d="M127.9,193.3c-0.2,1.3,4-0.4,4.2-0.3c1-0.4,2.7,0.6,3.2,1.5c0-0.9-0.8-1.7-1.4-2c-0.5-0.3-1.8,0-2.4-0.1
			c0.5-0.7,1.9-0.4,2.6-0.2c0.5,0.2,0.9,0.4,1.3,0.7c-0.4-1-1.3-1.6-2.8-1.9C130.9,191.3,129.3,191.3,127.9,193.3L127.9,193.3z
			 M127.9,193.3"/>
		<path class="st2" d="M128.2,193.7c2.6-1.1,4.1-1.2,5.9-1.1c-0.4-0.3-1.2-0.5-1.8-0.3c0.4-0.4,1.7,0,1.9,0
			C134,191.8,131.4,190.5,128.2,193.7L128.2,193.7z M128.2,193.7"/>
		<path class="st2" d="M127.8,193.3c-0.6,1.4-1.7,0.6-2.6,0.5c-1.4-0.2-3.1,0.9-3.5,2.6c-0.3-1.9,0.6-2.9,2-3.3
			c1-0.6,0.6-1.5-0.5-2.1c-0.6-0.3-1.1-0.2-1.9,0.2C123.2,188.5,127.7,191,127.8,193.3L127.8,193.3z M127.8,193.3"/>
		<path class="st2" d="M127.8,193.3c0.2,1.3-4-0.4-4.2-0.3c-0.9-0.4-2.7,0.6-3.2,1.5c0-0.9,0.8-1.7,1.4-2c0.5-0.3,1.8,0,2.4-0.1
			c-0.5-0.7-1.9-0.4-2.6-0.2c-0.5,0.2-0.9,0.4-1.3,0.6c0.4-1,1.3-1.6,2.8-1.9C124.7,191.2,126.3,191.2,127.8,193.3L127.8,193.3z
			 M127.8,193.3"/>
		<path class="st2" d="M127.5,193.6c-2.6-1.1-4.1-1.2-5.9-1.1c0.4-0.3,1.2-0.5,1.7-0.3c-0.4-0.4-1.7,0-1.9,0
			C121.6,191.7,124.3,190.5,127.5,193.6L127.5,193.6z M127.5,193.6"/>
		<path class="st2" d="M134.3,210.4c-0.2-1.8-0.4-3.2,0.7-4.7c0.2,0.5,0.3,0.9,0.6,1.3c0.1-0.5,0.2-0.7,0.4-1.3
			c0.1,0.5,0.2,0.9,0.3,1.4c0.4-0.5,0.5-1,1.3-1.4c0,0.2-0.2,0.3,0,0.6c0.2-0.3,0.3-0.4,0.8-0.4c-0.2,1.8-0.8,2.5-0.9,4.2
			c-0.3-1.6-0.4-1.6-0.2-2.8c-0.9,1.3,0.1,3-0.9,4.6c0.2-0.8,0.1-1.6-0.2-2.3c0.1,1.6,0,2.3-0.4,3.1c-0.1-1.2-0.2-1.7-0.3-2.3
			c-0.3,0.6-0.3,1.3-0.3,2C134.7,211.9,134.4,211.2,134.3,210.4L134.3,210.4z M134.3,210.4"/>
		<path class="st2" d="M120.9,210.6c0-1.9,0.1-3.9-0.2-5.6c-0.4,0.3-0.6,0.5-0.6,1.3c-0.2-0.5-0.4-0.9-0.5-1.4
			c-0.2,0.4-0.3,1.1-0.3,1.8c0-0.8-0.4-0.9-0.6-1.7c-0.1,0.2-0.2,0.5-0.2,0.9c-0.3-0.4-0.6-0.6-0.8-1.2c-0.2,0.4-0.2,0.7-0.3,1.2
			c-0.2-0.1-0.4-0.2-0.6-0.6c0.1,2.1,0.8,3.2,0.9,4.9c0.3-1.6,0.4-1.6,0.2-2.8c0.9,1.3-0.1,3,0.9,4.6c-0.2-0.8-0.1-1.6,0.2-2.3
			c-0.1,1.6,0,2.3,0.4,3.1c0.1-1.2,0.2-1.7,0.3-2.3c0.3,0.6,0.3,1.3,0.3,2C120.4,211.9,120.7,211.3,120.9,210.6L120.9,210.6z
			 M120.9,210.6"/>
		<path class="st2" d="M128.8,193.6c0-0.7,2-1.4,1.9-0.6c-0.2,0.6-0.1,1.3,0.1,2.2c0.1,0.6-1.6,0.2-2-0.5"/>
		<path class="st2" d="M126.8,193.7c0-0.7-2.1-1.6-1.9-0.8c0.1,0.6,0.1,1.3-0.1,2.2c-0.1,0.6,1.7,0.3,2-0.4"/>
		<path class="st2" d="M128.8,193.6c-0.7-0.4-1.3-0.4-1.9-0.1c-0.4,0.5-0.3,1.2,0.1,1.4c0.2,0.1,1.1,0.3,1.6-0.1
			C128.9,194.5,128.9,194,128.8,193.6L128.8,193.6z M128.8,193.6"/>
	</g>
</g>
<g>
	<g>
		<path class="st2" d="M157.3,224.5c0.3,0.8,1.1,1.7,2,1.8c-0.2,0.2-0.3,0.5-0.9,0.5c0.1,0.4,1.8,0.4,2.4-0.2
			c-0.1,0.5-0.1,0.9-0.8,1c0.1,0.2,1.2,0.4,1.7,0.4c0.5,0,1.5-0.2,1.6-0.9c0,0,0.2,1,0.3,1c0.1-0.6,0.6-1.1,1.4-1.4
			c0.1,0.5,0,0.9-0.4,1.3c1-0.1,1.1-0.7,1.6-1.2c-0.2,0.5,0.1,0.9,0.6,1.1c0-0.3,0.2-1.2,0.4-1.2c0.3-0.1,0.1,1.2-0.1,1.4
			c1.7-0.5,1.5-2.1,1.5-3.6c0.2,0.8,0.7,1.6,1.5,1.9c-0.5-0.9-0.6-2.1,0-2.9c0,0.4,0.1,0.8,0.4,1.1c0.1-0.5,0.3-0.6,0.6-0.7
			c0.2,0.3,0.2,0.7,0.1,1c0.7-0.3,1-0.8,1.1-1.4c0.1,0.5,0.1,1.1-0.1,1.6c0.9-0.4,1.1-1,1.1-1s0.1,0.5,0.6,0.9
			c0.1-0.3,0.3-0.6,0.6-0.8c-0.1,0.4,0,0.6,0.2,1.1c0-0.5,0.2-0.8,0.5-1c0.1,0.4,0.1,0.9,0.5,1.7c0.1-0.5,0.3-1.1,0.9-1.3
			c-0.1,0.3,0,0.6,0.1,0.9c0.1-0.4,0.4-0.7,0.8-0.9c-0.2,0.4-0.3,1,0,1.4c0.3-0.9,0.9-1.4,1.5-1.7c0.1,0.2,0.2,0.4,0.2,0.7
			c0.3,0,0.5-0.2,0.6-0.5c0.1,0.4,0,0.8-0.2,1.1c0.7-0.2,1.4-0.6,1.9-1.2c0.2,0.4,0.2,1,0,1.4c0.3-0.1,0.6-0.3,0.8-0.6
			c0.2,0.5,0.1,1-0.2,1.4c0.8-0.2,1.7-0.6,2.1-1.4c0.1,0.4,0.1,0.9-0.2,1.3c0.5,0.2,1.1,0,1.5-0.3c-0.6,0.6-0.3,1.4,0.1,1.9
			c0.3-0.8,0.5-1.2,1.4-1.2c-0.2,0.6,0,1,0.5,1.5c0.2-0.5,1-1.3,1.1-1.3c0,0.9,0.4,1.3,1.3,1.4c0.2,0,1.9,0.2,2.7-0.1
			c0,0,0-0.1,0-0.2c0.5-0.1,0.9-0.5,0.8-1.1c-0.1-0.3-0.3-0.5-0.3-0.5c0.3,0.3,0.6,0.7,1.3,0.7c-0.4-0.7-0.5-1.7-0.2-2.2
			c0.3,0.3,0.4,0.7,0.4,1.1c0.4-0.3,0.6-0.8,0.7-1.4c0.4,0.4,0.2,1.4,0.2,1.5c0.1-0.1,0.7-1,0.8-2c0.1,0.3,0.3,0.5,0.2,0.9
			c0.5-0.6,0.4-1.7,0.5-2.5c0.2,0.2,0.3,0.4,0.4,0.9c0.8-1.5-0.1-2.2,0.3-2.8c0,0.3,0.2,0.5,0.4,0.6c-0.1-0.5-0.1-1.4,0.1-1.8
			c0.1,0.4,0.5,0.6,0.8,0.4c-0.5-0.9-0.8-2.2-0.4-3.4c0.3,0.2,0.3,0.9,0.3,0.9c0.2-0.2,0.3-1.2,0.3-1.5c0.2,0.1,0.5,0.4,0.6,0.6
			c0.4-1.4-0.6-2.6-0.9-3.3c0.3,0.1,0.8,0.2,1.2,1.5c0.4-2.3-0.5-3.3-0.5-3.3c2.2-1.7,2.1-5.6,2.1-5.6c0.3,0.1,0.5,0.9,0.4,1.4
			c0.6-0.7,1-2.5,1-3.3c0.2,0.1,0.2,0.2,0.3,0.4c0.1-0.4,1-2.4,0.1-4.4c0.2-0.2,0.6-1.6-0.3-1.7c-0.3,0-0.8-0.1-0.8-0.1
			c-0.2-1.5-2.4-3-3.4-3c-1.5-1.3-4.8-0.6-6.4-0.1c-6.7,2.1-4.1,8.1-7,10.4c-2.9,1.2-6,1.3-9,1.1c0-0.1,0-0.3,0-0.4
			c0-0.7-0.1-1.5-0.4-2.2c-0.2-0.5-0.5-1-1-1.3c1,0.4,1.8,1.4,2.1,2.4c0.2-1.3-1.4-3.7-3.2-3.6c-0.6-0.9-2.1-1.5-2.9-0.8
			c-3-1.3-8.2,1.1-9.7,7.2c-2,1.5-3.3,3.7-3.7,6.4c0.2-0.2,0.6-0.4,0.9-0.3c0,0.5-0.2,1-0.5,1.3c0.2,0,0.5-0.1,0.7-0.2
			c-0.1,0.9-0.9,1.3-1.6,1.7c0.5,0.2,1.2-0.1,1.7-0.5c-0.1,0.4-0.3,0.7-0.6,0.9c0.5,0,0.7-0.2,1-0.5c-0.2,0.7-0.6,1.4-1.4,1.7
			c0.7,0.1,1.2-0.2,1.5-0.7c0,0.7-0.5,1.3-1,1.8c0.3,0.1,0.6,0,0.9-0.1c-0.1,0.2-0.3,0.4-0.5,0.6c0.4,0.1,0.6-0.1,0.9-0.3
			c-0.4,0.7-1,1.3-1.8,1.5c0.5,0.3,1.1,0.1,1.5-0.2c-0.1,1.2-1.1,2.3-2.4,1.6c0.1,0.6,0.8,0.9,1.4,0.9
			C158.5,224.1,157.9,224.7,157.3,224.5z M173.7,206.5c0.2-0.8,0.5-1.7,0.6-2.6c0.4,0.3,0.8,0.7,1.1,1.2c0.2,0.4,0.5,1,0.7,1.7
			C175.3,206.7,174.5,206.6,173.7,206.5z"/>
	</g>
</g>
<path class="st0" d="M237.1,224.2C237.1,224.2,237.1,224.2,237.1,224.2c0.6,0.6,0.5,1.6-0.4,1.8c-0.9,0.1-2.3,0.4-3.2-0.1
	c-1-0.6-0.9-1.6-1.2-2.5c-0.2-0.6-0.9-1-1.1-1.5c-0.4-0.8-0.2-2-0.1-2.8c0-0.3-0.1-0.7,0-1.1c0.2-1-1.1,0.3-0.7-0.5
	c0.1-0.3,0.1-0.4,0-0.7c-0.1-0.5-0.4-1-0.5-1.5c0-0.2-0.1-0.3-0.1-0.5c-0.3,0-0.6,0.1-1,0.1c-0.2,0-0.1,0.6-0.4,0.6
	c-0.5,0.2-2.5,0.8-3,0.8c-0.2,0-1.1-0.4-1.2-0.3c-1,0.5-2,0.1-2.8-0.6c-0.9-0.8-0.6-2-0.9-3c-0.1-0.4-0.5-0.7-0.6-1.2
	c0-0.1,0.4-0.4,0.4-0.4c0.9-0.7,3.4,1.2,5,0.6c0.8-0.3,1-1,1.7-1.4c0.6-0.4,1.3-0.6,1.8-0.9c0.5-0.3,0.9-0.6,1.3-1
	c1.3-1.6,2.6-1.7,3.7-1.8c0.1-0.2,0.8-0.4,0.8-0.4c0.5,0,0.9-0.1,1.4-0.1c0.4-0.1,0.9-0.1,1.3-0.1c0.1,0,0.5,0,0.6,0
	c0,0,0.1-0.3,0.1-0.4c0.1-0.2,0.4-0.3,0.6-0.3c0.7-0.1,1.5,0.3,2.2,0.5l0.7-0.1c0.6,0,1.1-0.5,1.7-0.5c0.5,0,1,0.4,1.4,0.4
	c0.1,0,0.2-0.2,0.3-0.2c0.3-0.1,0.5-0.1,0.8-0.1c0.6,0,1.1,0.5,1.8,0.5c0.2,0,0.4,0,0.6-0.1c0-0.5,0.2-1.1,0.2-1.1
	c-0.2-0.5-0.9,0-0.8-0.7c0-0.2,0.1-0.3,0.1-0.4c0.4-1,1.5-1.6,2.3-2.4c0.4-0.4,0.6-0.8,1.1-1.1c0.5-0.3,1.2-0.4,1.7-0.7
	c0.4-0.3,0.5-0.1,0.9-0.4c0.1-0.1,0.1-0.3,0.3-0.4c0.2-0.2,0.4-0.2,0.6-0.4c0.1-0.1,0.1-0.2,0.2-0.2c1-0.2,2.3,0.5,2.6,0.6
	c0.1,0,0.3-0.6,0.3-0.6c0,0,0,0.1,0.1,0.1c0,0.1,0.1,0.1,0.1,0.2c0.1,0.2,0.1,0.3,0.4,0.4c0.5,0.1,1.9,0.1,1.9,0.2
	c0,0.1-0.2,0.3-0.3,0.4c0,0-0.1,0.1-0.1,0.1c0.1,0.1,0.3,0.1,0.4,0.1c0.4,0.1,0.8,0.1,1.2,0.4c0.9,0.6,1.6,1.7,2.4,2.3
	c0.3,0.2,0.5,0.4,0.8,0.6c0.1,0.1,0.2,0.2,0.3,0.3c0,0,0,0,0,0c-0.1,0.1-0.4,0.1-0.5,0.2c-0.1,0-0.2,0-0.2,0c0,0,0,0,0,0
	c0.5,0.2,0.8,0.5,1.1,1c0.1,0.1,0.2,0.3,0.2,0.4c0,0-0.2,0.1-0.2,0.2c0,1,0.2,2.1-0.3,3.1c-0.1,0.1-0.2,0.1-0.2,0.2
	c-0.2,0.3,0,0.6-0.4,0.9c0,0,0,0-0.1,0c-0.4,0.2-0.9,0.1-1.3,0.3c-0.6,0.2-1,0.4-1.6,0.5c-0.4,0.1-1.4,0-1.4,0.1
	c0,0.5,0.1,0.3,0.1,0.9c0,0.3-0.3,0.5-0.4,0.9c-0.1,0.4,0.1,0.9,0,1.3c-0.1,0.4-0.4,0.7-0.5,1c-0.2,0.7-0.1,1.3-0.5,1.9l0,0
	c0,0,0,0.1-0.1,0.1c-0.1,0.1-0.1,0.1-0.2,0.2c0,0-0.1,0.1-0.1,0.1c-0.8,0.7-2.5,2.1-2.6,2.3c0,0-0.2,0.1-0.4,0.1
	c-0.1,0.4-0.2,0.7-0.3,1.1c0,0.1,0.1,2.1,0,2.9c0,0.2,0.3,0.4,0.4,0.5c0.5,0.3,0.1,0.3,0.5,0.8c0.2,0.2,0.3,0.9-0.1,1.1
	c-0.6,0.2-0.7,0.4-1.3,0.3c-0.1,0-0.1,0-0.2,0c0.2,0.2,0,0.2,0.3,0.7c0.2,0.2,0.3,0.9-0.1,1.1c-0.6,0.2-0.7,0.4-1.3,0.3
	c-0.4-0.1-0.9-0.2-1.3-0.3c-0.6-0.2-1.3-0.5-1.7-1c-0.3-0.4-0.2-1.1-0.2-1.6c0.1-1-0.3-2.2-0.4-3.1c-0.1-0.5-0.1-1-0.1-1.5
	c0-0.1,0-0.4,0-0.4c0,0-0.3,0.5-0.3,0.5c-0.2,0-0.5-0.1-0.7-0.2c-0.3-0.1-0.6-0.3-0.8-0.5c-0.1-0.1-0.3-0.3-0.4-0.4
	c0,0-0.5,0.3-0.6,0.3c-0.6,0-1.1-0.4-1.7-0.5c-0.4-0.1-0.7,0.4-1.1,0.3c-0.5-0.1-0.9-0.5-1.2-0.8c-0.1-0.1-0.3-0.3-0.4-0.3
	c-0.1,0-0.2,0.6-0.3,0.6c-0.5,0.2-0.6-0.4-1-0.6l-0.5-0.2c0,0-0.1,0.3-0.1,0.4c-0.1,0.4-0.6,1.3-0.8,1.6c-0.2,0.3-0.2,0.8-0.4,1
	c-0.3,0.3-0.8,0.4-1.1,0.7c-0.2,0.1-0.2,0.5-0.4,0.6c-0.1,0-0.4-0.4-0.4-0.4c0,0-0.3,0.2-0.3,0.3c-0.2,0.2-0.3,0.4-0.4,0.7
	c0,0,0,0.1,0,0.1c0,0.1,0,0.3,0,0.4c0.4,0.3,0.9,0.4,1.2,0.8C237.9,223.1,237.9,224,237.1,224.2L237.1,224.2z"/>
<path class="st2" d="M44.4,365.3c0.3-0.5,0.6-1.1,0.9-1.7c1.1,0.4,2.6,0.9,4.6,1.5c1.1,0.3,2.1,0.5,3.2,0.8c-0.6,2.1-1.3,4.5-1.2,5
	c0,0.7-0.5,1.4-0.2,1.8c0.2,0.4,0.4,0.7,0.6,1.1c0.2,0.5,0.6,2.9,0.9,3.1c0.3,0.2,6,0,6,0s-0.5-1.7-0.9-1.8c-0.5,0-1.3-0.7-2-1.5
	s0.4-2.7,0.5-3.2c0-0.2,1-1.8,2-3.6c0.1,0.8,0.7,5.2,0.7,6.1c0,1,0.6,1.5,0.9,2c0.2,0.5,0.4,2.8,0.7,3.1c0.4,0.2,5.9,0.3,6-0.1
	c0-0.4-0.6-1.7-1.5-1.9c-0.9-0.1-2.4-3.1-2.3-3.8c0.1-0.7,0.3-3.2,0.3-3.9s0.4-3.6,0.4-3.6s3.4-2.7,4.3-4.3c1-1.6,0.9-6.5,1.3-7.6
	c0.4-1.1,4.3-4.4,4.9-4.6c0.6-0.2,2.3-1,2.7-1.5c0.3-0.6,0.4-1.3,0.4-1.3s0.4-1.4,0.2-2.3c-0.2-0.9-0.8-1.5-1-1.6
	c-0.2-0.2-0.7-0.1-0.7-0.1s-0.3-0.2-0.6-0.2c-0.3,0-0.6,0-0.6,0s-0.3-1.8-1.1-2.3c-0.9-0.5-2.3-0.7-3.5-0.7c-1.2,0-3.3,0.5-3.3,0.5
	s0-2.1,0.1-3.1c0-1-0.3-2-0.3-2s-1,2.9-1.9,4.3c-0.9,1.3-0.9,5.8-0.9,5.8s-1,2.4-1.7,3.6c-0.7,1.1-3.1,3.1-3.9,3.4
	c-0.8,0.4-1.6,0.4-2.3,0.9c-0.7,0.5-8.6,0.7-9.9,0.7c-1.3-0.1-5.6-0.5-6.9,0.3c-1.3,0.8-4.1,2.3-4.1,2.3l1.7,0.3
	c0,0-1.6,3.4-1.8,4.7c-0.1,1.3,0.3,1.3,0.3,1.7c0,0.4-0.6,1.7-0.6,2.4c0,0.7-0.1,2-0.5,2.5c-0.4,0.5-2.3,1.7-2.3,2.3
	c0,0.6,0.2,3.1,0.1,4.6c-0.1,1.6,0.1,4.3,0.2,4.7c0.1,0.4,4.5,0.3,4.7,0.1c0.2-0.2,0-1.3-0.4-1.5c-0.4-0.2-2.1-1.1-2.1-1.1
	s0.4-3.3,1.1-4.5c0.3-0.5,0.8-1,1.5-1.7c0,0.7,0,1.7,0,2.3c0,0.8,0.3,4.7,0.4,5.1c0.1,0.4,4.3,0.3,4.5,0c0.2-0.2-0.1-1.1-0.3-1.3
	c-0.2-0.2-2.2-1.1-2.2-1.1s0.8-3.7,1-4.2c0.2-0.5,1.1-1.6,1.6-2C42.4,367.8,43.6,366.5,44.4,365.3z"/>
<path class="st0" d="M204.5,340.8c0,0-0.4-0.4-1.8-0.6c-1.4-0.2-2.7-0.1-2.9-0.5c-0.2-0.4,0-0.8-1.1-1.2c-1.1-0.5-4.7-0.7-5.7,0.3
	c-1,1-1.3,2.1-1.8,2.7c-0.5,0.5-1.6,2.7-1.9,3.4c-0.3,0.7-0.9,2-2.7,2.5c-1.8,0.6-3.4,1.3-4.6,1.9c-1.2,0.7-9.9,1-11.8,1
	s-3-0.6-4.2-2.3c-1.2-1.6-2.1-3.6-1.6-5.3c0.4-1.6,2.4-3.9,2.1-4.5c-0.3-0.6-1.3-0.7-2.2,0.2c-1,0.9-2.6,3.6-2,6.3
	c0.6,2.7,3.4,7.2,3.4,7.2s-2.1,2.4-2.6,4.4c-0.5,2.1-0.7,5-2.3,6.6c-1.6,1.6-3.6,2-3.7,2.9c-0.1,0.9,0.2,2.6,0.2,3.9
	c0,1.3-0.6,3.6-0.3,4c0.3,0.4,3.3,0.4,3.5-0.1c0.2-0.4,0.1-1.4-0.4-1.6c-0.6-0.2-0.9-0.8-0.8-1.8c0.1-1,0.3-2.9,2.1-3.6
	c1.8-0.7,4-1.7,4.9-2.7c0.9-1,3.1-3.1,5-3.2c1.8-0.1,9.6,0.7,11.4,1c1.8,0.4,4.4,0.4,4.4,0.4s0.3,3.1,0.3,4.3s0,3.7,0.1,4.1
	c0.1,0.3,0.6,0.6,1,1.1c0.4,0.5,0.7,2.2,1.3,2.5c0.7,0.2,3.4,0.3,3.5-0.4c0.1-0.6-0.6-1.3-1.2-1.5c-0.6-0.2-1.4-0.9-1.5-1.9
	c-0.1-1,0-5.1,0.3-6.3c0.3-1.2,0.6-2.1,0.6-2.1s2.3-1.4,3.2-3.1c0.9-1.6,1.7-5.6,1.9-7c0.2-1.4,0.6-2.9,0.6-2.9l1.1,0.5
	c0,0,0.3-0.6,0.3-1.1c0-0.5,0-1.6,0-1.6s0.7-0.8,1.3-0.9c0.7-0.1,1,0.2,1.8-0.2c0.7-0.4,1-0.9,1-0.9s0.9-0.1,1.6-0.9
	c0.8-0.9,0.8-2,0.9-2.2C204.8,341.5,204.5,340.8,204.5,340.8z"/>
<path class="st0" d="M144.1,345.5c0,0.3-0.3,0.7-0.6,1.1c-0.3,0.4-0.5,0.8-0.8,0.9c-0.2,0.1-0.7,0.3-0.7,0.3s-0.2,0.4-0.4,0.6
	c-0.3,0.2-3.2,0.2-3.8,0.6c-0.6,0.5-2.6,5.4-2.6,6.7c0.1,1.3,0.2,3.9-0.2,4.9c-0.4,1-4.7,4-5.7,4.5c-1,0.5-2,0.7-2,0.7
	s-0.4,1-0.3,1.7c0.1,0.6,0.4,1,0.5,1.5c0.2,0.4,0.8,0.2,1.5,0.7c0.8,0.5,1,1.4,1,1.4s-4.3,0.4-4.6-0.1c-0.3-0.5-0.1-1.5-0.5-2.1
	c-0.3-0.6-1.3-1.5-1.3-1.5l0.1-1.1c0,0-1.9,0.5-4.4-0.6c-2.6-1.1-5.3-1.6-9.4-2c-4.1-0.4-5.1-0.4-6.8,0.5c-1.6,0.8-2.6,1.3-3.8,1.6
	c-1.2,0.3-2.1,0-2.4,0.4c-0.3,0.4-0.9,1.9-0.9,2.5c0,0.6,0.5,0.7,0.5,0.7s0.9-0.1,1.3,0.3c0.5,0.4,0.7,1.4,0.7,1.4s-3.6,0.2-4,0
	s-0.1-2.6-0.3-4c-0.2-1.4-1-2.2-0.7-2.8c0.3-0.7,1.9-0.9,2.7-1.5c0.8-0.6,1-2.8,1.3-3.9c0.3-1,0.9-2,0.9-2s-1.8,1-3.1,2.7
	c-1.3,1.7-3.1,5.1-4.7,6.4c-1.7,1.3-6.4,2.1-6.4,2.1s5-1.5,6.4-3.6c1.4-2.1,3.2-6.5,6.4-8.3c3.2-1.8,6.3-2,7.5-1.8
	c1.1,0.2,2.8,0,6.9-0.2c4.1-0.2,7.6,0.1,8.4,0c0.8-0.1,2-0.7,3.7-1c1.7-0.3,3.5-1.3,3.8-2c0.3-0.7,0.7-2.6,1.2-4.3
	c0.5-1.8,1.4-4.5,2.3-5.1c0.9-0.6,3.5-1,4.4-1c0.8,0,2.1,0.9,2.3,1.3c0.2,0.3,0.4,1,1.4,1.3c1,0.3,3.4,1.1,3.9,1.3
	C143.6,344.7,144.2,345.2,144.1,345.5z"/>
<path class="st2" d="M218.8,369.8c0.6-0.1,1.1-0.3,1.6-1.2c-0.3,0.1-0.6,0.1-0.9-0.6c1.9,0,2.3-1.7,3-2.4c1.1-1.1,0.8-2.1,1.5-3.3
	c0.8-1.6,0.8-2.9,1.5-3.6c0.9-0.8,0.5-1.7,1.6-2.2c-0.8-0.2-1.9-3.3,2.6-5.7c0.6-0.5,1.3-1,2.3-1.3c1.8-0.6,4.3-0.9,9.3-1.2
	c2.1-0.1,3.7-0.3,5-0.6c1.5-0.3,1.4-0.9,2.8-1.7c1-0.6,1.6-0.6,2.1-1c0.8-0.6,1.5-3.3,2.7-4.6c0.8-0.8,0.7-1.1,1.3-1.9
	c0.4-0.6,1.8-1.7,3.3-1.5c0.8,0.1,1.8-0.7,3.1,0.2c0.6,0.4,1.2,0.9,1.4,1.4c0.3,0.7,0.1,1.4,0.2,1.4c0.6,0.3,2.1-0.1,2.5-0.1
	c0.4,0,0.6,0.3,0.6,0.7c0.1,0.4,0.2,1.4,0.2,1.9c0,0.5-0.2,1.1-0.8,1.4c-0.6,0.3-0.7,1.2-1.2,1.5c-0.4,0.3-1,0.3-1.1,0.4
	c0,0,1.6,1,2.2,2.6c0.2,0.5,0.4,2.1,1.2,1.9c0,0.4-0.5,0.3-0.8,0.1c0.1,0.1,0.2,0.2,0.3,0.3c1,0.5,0.4,1.6,0.3,1.3
	c-0.3-0.5-0.8-0.2-0.9,0.2c-0.1,0.3,0.1,0.5,0.1,0.5s0.1,0.3-0.4,0.2c-0.4,0-0.7,0.2-0.7,0.4c0,0.1,0.1,0.3-0.2,0.5
	c-0.1-0.1-0.3-0.2-0.3-0.1c-0.2,0.3-0.4,0.5-0.6,0.5c-0.1-0.3-0.6-0.2-0.6-0.2s0.1,0.5,0.1,0.9c0,0.3,0.7,0.6,0.4,1
	c-0.5-0.2-0.7,0-0.6,0.2c0.1,0.1,0.1,0.3-0.2,0.3c-0.2,0.1-0.7,0-0.7,0s-0.3,0-0.3,0.3c0.2,0.7-0.6,0.8-1.4,1.1
	c-0.4,0.7-1.1,0.4-1.3,0.7c0.3,0.4,0.3,2.7,1.4,3.4c-0.2,0.1-0.5,0-0.7-0.2c-0.2,0.7,0.2,1.6,0.4,2.3c-0.2,0.1-0.3,0-0.4-0.1
	c0.2,1.2,0.6,2.6,2.4,4.5c-0.7,0-1.3-0.5-1.7-1.2c0.2,0.5,0.5,0.9,0.8,1.4c0.8,1.2-0.2,2-0.9,2.3c-0.5,0.2-1,0.1-1,0.3
	c0,0.4-0.9,0.2-0.9,0.2s0.9,1.2,0.6,1.8c-0.1,0.3-0.4,0.3-0.8,0.5c-0.4,0.1-1,0-1,0s0.1,0.4-0.2,0.4c-0.5-0.1-1-0.2-2.6,0
	c-1.1,0.1-1.6,0.6-2.6,0.6c-1.4,0-2.2-0.5-3.1-0.5c-1.7,0-1.4-0.5-2.4-0.5c-1.2,0-0.8-1.1-0.8-1.7c-0.2,0.3-0.4,0.7-0.3,1.1
	c-0.7-0.8,0-1.9,0.3-2.7c-0.5,0.5-1.1,0.5-1.1,0.5s0.7-0.5-0.2-1.2c-0.2-0.1-0.4,0.3-0.4,1.3c-0.9-0.4-0.3-1.5-0.8-1.7
	c0,0.4-0.2,1.2-0.6,1.3c0.3-0.7,0-1.2-0.1-1.3c0,0.6-0.1,2-1.3,2.1c0,0,0.9-1.2,0.1-1.9c-0.1,0.8-0.7,1.4-1.1,1.4
	c0.5-1.6-0.4-2.2-0.5-2.2c-0.4,0.5,0,1.4,0,1.5c0,0,0,0,0,0c-0.9-0.4-0.9-1.2-0.8-1.9c-0.2,0.1-0.5,0.5-0.8,0.9
	c-0.5-0.3-0.3-0.7-0.3-1.2c-0.2,0.2-0.7,0.6-1,0.5c0.1-0.2,0.1-0.7,0-0.9c-0.9,0.2-0.6,1.3-1.9,1.5c0.2-0.2,0.3-0.8-0.1-1.1
	c0,0.8-1.2,2.5-0.7,3.7c0,0-0.9-0.2-0.7-1.4c-0.5,0.6,0.4,1.7-1.1,2.3c-0.3,0.1-0.6-0.2-2.4,0.3c-0.9,0.2-1.4-0.2-1.5-0.1
	c-0.1,0.2-0.1,0.7-0.5,0.9c-0.4,0.1-1.4,0.6-2.4,0.3c-1.4-0.3-2.7-0.1-3.3-0.5c-0.7-0.4-0.7-1.3-1.1-1.5c-0.5-0.1-1,0-1.4-0.7
	C218.9,371.4,218.3,369.9,218.8,369.8z"/>
<path class="st2" d="M63.8,505.3c-0.4,1.7-1.7,7.7-1.6,8.1c0.1,0.5,0.2,0.3,0.1,0.9c0,0.6,0.1,2.8,0.6,3.1c0.4,0.3,2.5,0.2,2.7,0.1
	c0.2,0,0.2-1.3-0.3-1.6s-0.9-0.9-0.9-1.6c0-0.5,0.4-1.6,0.7-3c0.1,0.6,0.2,1.3,0.3,1.7c0.4,1.7,0.8,4.9,1.4,5.1
	c0.6,0.1,3.5,0.2,3.5,0s-0.1-1.1-0.9-1.5c-0.8-0.4-1.6-0.4-1.6-1.2c-0.1-0.8,0.3-2.9,0.6-5.2c0.4-2.3,0.6-3.2,0.6-3.2s0.4-1.9,1-3.1
	c0.6-1.3,3.8-4.5,4.4-6.5c0.6-2,0.2-5.5,0-6.7c-0.2-1.2,0.3-2.9,0.4-3.4c0-0.4,1.4-1.5,2.1-1.8c0.7-0.2,1.8-0.7,1.9-0.9
	c0.1-0.3,0.1-0.6,0.1-0.6s0.2-0.1,0.4-0.9c0.2-0.8,0.1-1.8-0.2-2c-0.3-0.2-1.3,0-1.9,0.3c-0.6,0.3-2.1,0.3-2.1,0.3s-0.4-0.7-1.7-0.8
	c-1.3,0-2.7,0.1-3.7,1.3c-1,1.2-2,3.9-2.4,5c-0.4,1.1-1.6,3.3-1.8,3.5c-0.2,0.2-5.9,1.3-6.7,1.7c-0.8,0.4-4.5,0.5-6.6,0.5
	c-2.1,0-5.4,0-7.2,0.5c-1.8,0.5-2.4,0.9-2.4,0.9s-0.7-0.1-2.4,1.5c-1.7,1.6-3.2,6.1-4.4,7.9c-1.3,1.7-1.9,2.8-3.5,3.5
	c-1.6,0.7-2.4,5-2.4,5s0.3-0.2,0.5-0.3c0.2-0.1,0.3-0.2,0.3-0.2l-0.2,0.6c0,0,0.5-0.1,0.6-0.2c0.2-0.1,0.6-0.4,0.6-0.4l-0.1,0.5
	c0,0,0.1,0,0.4-0.2c0.3-0.1,0.8-0.4,0.8-0.4l-0.3,0.6c0,0,0.5-0.1,0.7-0.2c0.2-0.1,0.5-0.4,0.5-0.4v0.4c0,0,0.5-0.1,0.6-0.2
	c0.1-0.1,0.3-0.4,0.3-0.4l0.1,0.5c0,0,0.5-0.3,0.7-0.5c0.1-0.2,0.3-0.5,0.3-0.5l0,0.8c0,0,0.2-0.1,0.4-0.4c0.2-0.3,0.6-0.8,0.7-1.2
	c0.1-0.4,0.5-1.2,0.5-1.2s-0.6,2.2-0.5,2.7c0.1,0.5-0.5,2.3-0.5,2.6c0,0.3,0.2,3.4,0.6,3.7c0.3,0.2,2.4,0.1,3,0c0.5,0,0.2-1.1,0-1.4
	c-0.2-0.4-0.9-0.4-1.2-0.8c-0.3-0.5,0.3-3.6,1.7-4.6c0.1-0.1,0.1-0.1,0.2-0.2c0,0.1,0,0.3,0,0.3c0.1,0.5-0.4,2-0.5,2.3
	c-0.1,0.3,0.2,3.4,0.5,3.7s3.2,0.3,3.3,0.1c0.1-0.2,0.1-1.1-0.3-1.5c-0.4-0.4-1.1-0.6-1.1-1.3c0-0.7-0.2-2.7,1.2-4.4
	c0.4-0.6,0.8-1.1,1.1-1.7l0.5-0.3c2-1.1,3.9-4.4,3.9-4.4s2.2-0.1,5.6,0.7c3.4,0.8,8.7-1.1,8.7-1.1S63.6,504.3,63.8,505.3z"/>
<path class="st2" d="M102.9,495.8c-0.6,0.6-1.1,1.3-1.4,1.9c-0.6,1.5-2.2,6.1-3.9,7.8c-1.7,1.7-4,3.6-4.8,4.7
	c-0.8,1.1-1.3,3.4-1.3,3.4s0.4-0.2,1.1-0.6l-0.1,0.7l0.5-0.9l0.1,0.6l0.5-0.7l0.1,0.4l0.5-0.7l0.1,0.4l0.5-0.7l0,0.7
	c0,0,0.3-0.3,0.3-0.4l0.3-0.8l0.2,0.9c0,0,0.1-0.4,0.1-0.6c0-0.2,0.3-0.6,0.3-0.6l0.2,0.6c0,0,0.1-0.4,0.2-0.6
	c0.1-0.3,0.2-0.4,0.2-0.4l0.2,0.4c0,0,0.1-0.4,0.2-0.7c0.1-0.2,0.3-0.5,0.3-0.5l0.1,0.8c0,0,0.2-0.4,0.3-0.8
	c0.1-0.4,0.2-0.4,0.2-0.4l0.2,0.6c0,0,0-0.3,0.1-0.5c0.1-0.3,0.3-0.6,0.3-0.6l0.2,0.6c0,0,0.1-0.4,0.2-0.8s0.3-0.7,0.3-0.7l0.3,0.5
	c0,0,0.1-0.5,0.1-0.8c0-0.3,0.1-0.5,0.1-0.5l0.2,0.4c0,0,0.1-0.5,0.1-0.8c0-0.3,0.2-0.8,0.2-0.8l0.4,0.6c0,0,0-0.5,0-0.8
	c0-0.3,0.4-1.6,0.4-1.6l0.1,0.6c0,0,0.3-0.6,0.3-0.9c0-0.3,0.3-3.1,0.4-3.4c0,0.7,0.1,1.4,0.2,2c0.4,2.1,1.7,4.4,0.9,5.9
	c-0.8,1.4-2.3,2.1-2.3,2.5c0,0.4,0,4.6,0,5.1c0,0.5,0,1.1,0.9,1.2c1,0.1,3,0,3-0.1c0-0.1-0.1-0.9-0.5-1.1c-0.4-0.2-1.2-0.2-1.3-1.3
	c-0.1-1.1,0.7-3.4,1.9-3.8c1.1-0.4,2.7-1.3,4.3-2.9c1.6-1.5,2.9-3.9,2.9-3.9s5,1.6,7.4,2c2.5,0.4,7.6-0.4,7.6-0.4s0.1,0.8-0.1,1.3
	c-0.2,0.6-0.4,1.2-0.4,1.2l0.7-0.4c0,0-0.1,0.5-0.3,0.9c-0.2,0.4-0.5,0.9-0.5,0.9l0.7-0.4c0,0-0.1,0.5-0.2,0.9
	c-0.1,0.4-0.4,0.8-0.4,0.8s0.4,0.1,0.6-0.1c0.2-0.1,0.4-0.4,0.4-0.4s0,0.7-0.2,1c-0.2,0.4-0.4,0.7-0.4,0.7l0.7-0.3c0,0,0,0.2,0,0.6
	c-0.1,0.4-0.3,0.7-0.3,0.7l0.8-0.5c0,0,0,0.7-0.1,0.8c-0.1,0.2-0.2,0.4-0.2,0.4l0.7-0.5c0,0-0.2,0.5-0.4,0.8
	c-0.2,0.3-0.4,0.4-0.4,0.4l0.9-0.4c0,0,0.4,1.6,0.6,1.9c0.2,0.4,0.7,1,1.7,1c1.1,0,2.6,0,2.7-0.2c0.1-0.2,0.1-0.9-0.7-1.4
	c-0.8-0.5-1.4-0.2-1.7-1c-0.3-0.8-0.4-6.5,0.1-7.1c0.5-0.6,3.9-3.5,4.2-5.2c0.1-0.8,0.2-2.4,0.3-3.8c0.1,0.2,0.2,0.5,0.2,0.5
	s0-0.3,0.1-0.5c0-0.2,0-0.8,0-0.8l0.2,0.4c0,0,0.2-0.5,0.1-0.9c0-0.4,0-0.4,0-0.4l0.3,0.3c0,0-0.1-0.5-0.1-0.7c-0.1-0.1,0-0.5,0-0.5
	l0.2,0.3c0,0,0-0.6,0-0.8c-0.1-0.2,0-0.5,0-0.5l0.3,0.4c0,0,0-0.4-0.1-0.8c-0.1-0.4-0.1-0.6-0.1-0.6l0.3,0.4c0,0,0.1-0.4,0-0.8
	c-0.1-0.4-0.2-0.6-0.4-1c-0.1-0.2-0.1-0.5-0.1-0.8c0.1-0.2,0.1-0.3,0.1-0.3s1.8-0.3,2.9-0.6c1.1-0.3,1.8-1.4,1.8-1.4s0.6-0.7,0.6-1
	s-0.1-0.7-0.7-0.8c-0.6-0.1-2.8-1-2.8-1s-0.6-1.9-1.9-2.3c-0.5-0.2-1-0.3-1.6-0.4c0-0.3,0.1-0.6,0.1-1c0-1.2-0.1-2-0.1-2
	s-1.4,0.8-2.1,1.8c-0.4,0.6-0.5,1.2-0.6,1.6c-1.2,0.8-2.3,2.7-2.9,3.4c-0.6,0.8-2,3-2.3,3.3c-0.3,0.2-1.3,0.3-1.9,0.2
	c-0.6-0.1-1.4-0.2-1.4-0.2l0.5,0.4c0,0-0.3,0-0.5,0c-0.2,0-0.6-0.1-0.6-0.1l0.3,0.5c0,0-1.4,0.6-3.8,0.7s-7.7,0-8.7-0.2
	c-1-0.2-5.4,0-7.4,1.9C103.4,494.9,103.1,495.3,102.9,495.8z"/>
<path class="st0" d="M250.8,490.2c0.1-0.3,0.2-0.5,0.3-0.8c0.2-0.3,0.4-0.4,0.6-0.7c0.1-0.2,0.1-0.6,0.2-0.8
	c0.1-0.2,0.4-0.4,0.5-0.6c0.4-0.9,2-3.4,2.1-3.5c0.7-1,2.1-1.9,2.9-2c0.3-0.1,1.8-0.2,2.1-0.1c0.6,0.1,1.2,0.5,1.8,0.7
	c0.7,0.3,1.4,0.2,2.1,1.1c0.6,0.7,0.8,1.3,0.9,2.1c0.1,0.4,0,0.9,0.3,1.3c0.2,0.3,0.4,0.4,0.7,0.6c0.6,0.4,1.2,0.8,1.8,1.2
	c0.3,0.2,0.9,0.4,0.9,0.8c-0.1,0.5-0.5,0.9-0.8,1.3c-0.2,0.3-0.2,0.7-0.4,1c-0.5,0.5-1.2,0.4-1.8,0.5c-0.3,0-0.7,0.2-1,0.2
	c-0.3,0.1-0.5,0.1-0.8,0c-0.3-0.1-0.6-0.3-0.8,0c-0.4,0.6-0.3,1.4-0.8,2l0,0c0,0,0,0,0,0c-0.3,1.3-0.5,2.7-0.7,4
	c-0.2,1.2-2,4.7-2.6,5.2c-0.5,0.4-0.9,1-1.3,1.5c-0.4,0.4-0.9,0.7-1.3,1c-0.1,0.3-0.3,0.6-0.4,0.6c-0.1,0.1-0.3,0.2-0.4,0.3
	c0,0,0,0,0,0c-0.2,0.6-0.4,1.1-0.6,1.3c-0.1,0.1-0.2,0.2-0.3,0.3c-0.2,0.3-0.4,1.1-0.4,1.4c-0.1,0.3,0.1,0.5,0,0.8
	c-0.1,0.4-0.4,0.6-0.5,0.9c-0.1,0.4,0,1,0.1,1.4c0.1,0.6,0.2,1.2,0.5,1.8c0.1,0.2,0.1,0.6,0.4,0.7c0.2,0.1,0.4,0.2,0.5,0.2
	c0.7,0.2,0.8,0.1,1.4,0.6c0.4,0.3,0.9,1.5,0.3,1.8c0,0-0.2,0.1-0.3,0.2c0.3,0.4,0.6,1.1,0.1,1.4c-0.1,0-0.3-0.1-0.4,0
	c-0.2,0.3-0.7,0.3-1.1,0.3c-0.9,0-1.8,0.1-2.6-0.1c-0.5-0.1-1-0.1-1.4-0.5c-0.2-0.2-0.3-0.4-0.4-0.6c0-0.1,0-0.3-0.1-0.4
	c0,0-0.4,0-0.6,0c-0.4,0-0.8-0.1-1.1-0.5c-0.1-0.2,0.1-0.5,0-0.7c0-0.3-0.4-0.5-0.5-0.8c0-0.2,0-0.5-0.1-0.6c0,0-0.1,0-0.1,0.1
	c-0.1,0-0.1,0.1-0.2,0.1c-0.2,0.1,0.1-1.3,0.2-1.8c0,0-0.1,0-0.1,0c-0.1,0-0.1,0-0.2,0c-0.2,0,0.2-1.5,0.3-2c0-0.1-0.1,0-0.2,0
	c-0.1,0-0.2,0-0.3,0c0,0,0-0.1,0-0.1c0-0.1,0-0.1,0.1-0.2c0.1-0.2,0-0.4,0-0.7c0-0.1,0-0.2,0-0.2c-0.1,0,0-2.7,0.2-3.5
	c-0.3,0-0.6,0-0.9-0.1c-0.9-0.3-1.7-0.2-2.6-0.3c-0.7-0.1-1.3-0.2-2-0.2c-0.5,0-3.5-1.1-3.9-1.3c-0.4-0.2-2.8-1.2-3.1-1.1
	c0,0-0.1,0.2-0.1,0.2c-0.1,0.4-0.3,0.9-0.6,1.2c-0.3,0.4-1.1,1.8-2.5,2.8c-1.1,0.9-2.7,1.5-3.1,1.6c-0.4,0.1-0.8,0-1.1,0.2
	c-0.3,0.2-0.9,0.5-1.1,0.8c-0.2,0.3-1.3,1.9-1.7,2.7c0,0,0,0.1,0,0.1c0.1,0.3,0.3,0.7,0.5,1c0,0.1,0.1,0.3,0.2,0.3
	c0.1,0.1,0.3,0,0.4,0c0.3,0,0.7,0,1,0.2c0.4,0.3,0.7,0.9,0.7,1.4c0,0.1-0.1,0.4-0.1,0.4c0,0.3-0.6,0.3-0.7,0.3c-0.1,0-0.1,0-0.2,0
	c-0.1,0-0.2,0-0.2,0c-0.2,0-0.4,0-0.7,0c0,0,0.1,0,0.1,0.1c0.4,0.3,0.7,0.9,0.7,1.4c0,0.1-0.1,0.4-0.1,0.4c0,0.3-1.8,0.3-2.2,0.3
	c-0.4,0-0.9-0.1-1.3-0.1c-0.4,0-0.9-0.1-1.1-0.5c-0.1-0.1-0.1-0.3-0.2-0.4c-0.1-0.2-0.3-0.4-0.4-0.7c-0.1-0.1-0.1-0.3-0.1-0.4
	c-0.1-0.1-0.2-0.2-0.2-0.4c0-0.2,0.1-0.4,0.1-0.6c0-0.2,0-0.5,0-0.8c-0.1-0.4-0.5-0.5-0.5-0.9c0-0.4,0.2-0.8,0.3-1.3
	c0-0.3,0-0.6-0.1-0.9c0,0-0.1-0.7-0.1-1l0,0c-0.1-0.1-0.1,0.2-0.1,0.4c-0.1,0.2-0.1,0.4-0.2,0.7c-0.3,0.9-0.6,1.8-1,2.7
	c0,0-0.2,0.4-0.2,0.3c-0.2-0.1-0.7-1.5-0.9-1.6c-0.2,0,0,0.7-0.2,0.6c-0.1-0.1-0.1-0.9-0.1-1c-0.1-1-0.2-2-0.1-3
	c0.2-1.3,0.7-2.5,1.1-3.8c0.2-0.5,0.2-1,0.4-1.5c0.2-0.5,0.7-0.9,0.8-1.3c0.1-0.3-0.1-0.7,0-1.1c0.2-0.9,0.8-1.6,1.1-2.5
	c0.2-0.5,0-1,0.2-1.5c0.2-0.4,0.5-0.7,0.7-1.1c0.1-0.3,0.1-0.6,0.3-0.9c0.2-0.4,0.5-0.6,0.7-0.9c0.1-0.2,0-0.5,0.1-0.7
	c0.2-0.5,0.7-1.3,1.1-1.6c0.3-0.3,0.7-0.4,1.2-0.5c0.4-0.1,0.8-0.4,1.2-0.5c0.4-0.1,0.9,0,1.3-0.2c0.4-0.1,0.6-0.5,1-0.6
	c0.4-0.2,0.8,0,1.2-0.1c0.4-0.1,0.8-0.4,1.2-0.4c0.9-0.1,7.8,0.6,8.4,0.6c0.4,0,0.7-0.1,1-0.1c0.6,0,1.3,0.1,1.9,0
	c0.8-0.1,1.6-0.4,2.4-0.5c0.6-0.1,1.2,0.1,1.8,0.1c0.3,0,0.6-0.2,0.9-0.3c0.3,0,0.6,0,0.8-0.1c0.3-0.2,1.1-0.6,1.4-0.9
	C250.4,490.4,250.6,490.3,250.8,490.2L250.8,490.2z"/>
<g>
	<g>
		<path class="st0" d="M192.2,480.8c-0.8,0.3-0.4,0.9,0.5,2.1l0,0c-0.4,0.6-1.9,1.8-2.5,3.1c0,0-1,1.4-1.4,1.9
			c-0.4,0.5-1.7,1.4-2,1.5c-0.3,0.1-1-0.2-1.4,0c-0.4,0.1-0.7,0.4-0.7,0.4s-0.9-0.1-1.4,0.2c-0.5,0.2-1.2,0.6-1.2,0.6
			s-5.8-0.7-7.8-0.7c-2-0.1-5.7,0.6-5.7,0.6l-2.3,0.8c0,0-4-0.7-5.2,2c-1.1,2.7-1.4,7.7-2,9.1c-0.7,1.4-3,2.9-3.3,3.2
			c-0.3,0.3-0.5,1,0.1,0.8c0.6-0.1,2.7-0.9,3.3-1.6c0.7-0.7,1.7-3,1.9-3.5c0.2-0.5,0.4-1.6,0.4-1.6s0.1,1.5-0.2,2.4
			c-0.3,0.9-0.4,2-0.5,2.4c-0.1,0.5-1.5,3.7-2.3,4.3c-0.7,0.6-1.3,1.1-1.4,1.5c-0.1,0.4,0.4,0.9-0.5,3.7c-0.9,2.8-0.9,3.8-0.8,4.1
			s0.1,0.7,0.9,0.7c0.4,0,0.6-0.1,0.6-0.1s0.9,0.2,1.4,0.1c0.5-0.1,0.9-0.2,0.9-0.6c0.1-1.1-1.5-1.4-1.5-1.4s0.1-3,1.3-4.3
			c0.6-0.6,1.1-1.2,1.5-1.8c-0.1,1.6-0.2,4.2-0.3,4.7c-0.1,0.6-0.1,1.3-0.1,1.7s2.1,0.5,2.5,0.5c0.5,0,0.7-0.3,0.7-0.3
			s0.5,0,0.3-0.6c-0.2-0.5-1.6-1.4-1.5-1.7c0,0,0.2-1.7,0.4-2.3c0.2-0.6,1.1-2,2.2-3.3c0.9-1.2,2.1-2.9,2.4-4.7
			c1-1.7,1.7-2.7,1.7-2.7s1.8-0.8,3.2,0.2c1.4,0.9,2.1,0.7,2.4,0.5c0.3-0.2,0.6-0.7,0.6-0.7s3.3,0.7,4.4,1.3
			c1.2,0.6,3.6,1.4,4.3,1.4c0.7,0.1,1.3,0,1.3,0s0.7,2.8,0.9,3.8c0.3,1,1.1,4.4,1.2,4.8c0.1,0.3-0.1,2.1,0.3,2.3
			c0.4,0.2,0.5,0,0.8,0.5c0.4,0.5,0.7,1.6,1.2,2.4c0.5,0.8,2.5,0.2,2.5,0.2s1.8,0.4,1.8,0s-0.9-1.4-0.9-1.4s0.3,0,0.3-0.3
			c0-0.3-1.4-1.3-1.8-1.4c-0.4-0.1-0.5,0.2-0.6-0.4c-0.1-0.6-0.4-1.9-0.1-2.7c0.2-0.8,0.3-2.4,0.3-3.2c0-0.8,0.9-3.8,0.9-4.3
			c0-0.4-0.1-0.9,0.4-1.6c0.5-0.7,1.8-2.6,2-4c0.2-1.4,0.3-1.5,0.3-1.5c0.6-2.5,1.1-5.1,2.3-7.6c0.4-0.8,3.1-1,3.9-1.2
			c0.7-0.3,2-0.4,2.6-0.9c0.6-0.5,0.7-0.9,0.7-0.9s0.7-0.6,1.1-1.2c0.4-0.6,0.3-2.5,0-2.6c-0.3-0.1-2.9-0.5-3.1-0.5
			c-0.3,0-0.4-0.3-0.5-0.6c-0.3-1.4-1.4-1.8-3-2.2c-1-0.2-1.6-0.3-1.6-0.3c-0.2-0.8-1-0.8-2-0.5
			C193.8,479.8,192.2,480.6,192.2,480.8L192.2,480.8z M192.2,480.8"/>
		<path class="st2" d="M192.2,480.8c-0.8,0.3-0.4,0.9,0.5,2.1l0,0c-0.4,0.6-1.9,1.8-2.5,3.1c0,0-1,1.4-1.4,1.9
			c-0.4,0.5-1.7,1.4-2,1.5c-0.3,0.1-1-0.2-1.4,0c-0.4,0.1-0.7,0.4-0.7,0.4s-0.9-0.1-1.4,0.2c-0.5,0.2-1.2,0.6-1.2,0.6
			s-5.8-0.7-7.8-0.7c-2-0.1-5.7,0.6-5.7,0.6l-2.3,0.8c0,0-4-0.7-5.2,2c-1.1,2.7-1.4,7.7-2,9.1c-0.7,1.4-3,2.9-3.3,3.2
			c-0.3,0.3-0.5,1,0.1,0.8c0.6-0.1,2.7-0.9,3.3-1.6c0.7-0.7,1.7-3,1.9-3.5c0.2-0.5,0.4-1.6,0.4-1.6s0.1,1.5-0.2,2.4
			c-0.3,0.9-0.4,2-0.5,2.4c-0.1,0.5-1.5,3.7-2.3,4.3c-0.7,0.6-1.3,1.1-1.4,1.5c-0.1,0.4,0.4,0.9-0.5,3.7c-0.9,2.8-0.9,3.8-0.8,4.1
			c0.1,0.3,0.1,0.7,0.9,0.7c0.4,0,0.6-0.1,0.6-0.1s0.9,0.2,1.4,0.1c0.5-0.1,0.9-0.2,0.9-0.6c0.1-1.1-1.5-1.4-1.5-1.4s0.1-3,1.3-4.3
			c0.6-0.6,1.1-1.2,1.5-1.8c-0.1,1.6-0.2,4.2-0.3,4.7c-0.1,0.6-0.1,1.3-0.1,1.7s2.1,0.5,2.5,0.5c0.5,0,0.7-0.3,0.7-0.3
			s0.5,0,0.3-0.6c-0.2-0.5-1.6-1.4-1.5-1.7c0,0,0.2-1.7,0.4-2.3c0.2-0.6,1.1-2,2.2-3.3c0.9-1.2,2.1-2.9,2.4-4.7
			c1-1.7,1.7-2.7,1.7-2.7s1.8-0.8,3.2,0.2c1.4,0.9,2.1,0.7,2.4,0.5c0.3-0.2,0.6-0.7,0.6-0.7s3.3,0.7,4.4,1.3
			c1.2,0.6,3.6,1.4,4.3,1.4c0.7,0.1,1.3,0,1.3,0s0.7,2.8,0.9,3.8c0.3,1,1.1,4.4,1.2,4.8c0.1,0.3-0.1,2.1,0.3,2.3
			c0.4,0.2,0.5,0,0.8,0.5c0.4,0.5,0.7,1.6,1.2,2.4c0.5,0.8,2.5,0.2,2.5,0.2s1.8,0.4,1.8,0s-0.9-1.4-0.9-1.4s0.3,0,0.3-0.3
			c0-0.3-1.4-1.3-1.8-1.4c-0.4-0.1-0.5,0.2-0.6-0.4c-0.1-0.6-0.4-1.9-0.1-2.7c0.2-0.8,0.3-2.4,0.3-3.2c0-0.8,0.9-3.8,0.9-4.3
			c0-0.4-0.1-0.9,0.4-1.6c0.5-0.7,1.8-2.6,2-4c0.2-1.4,0.3-1.5,0.3-1.5c0.6-2.5,1.1-5.1,2.3-7.6c0.4-0.8,3.1-1,3.9-1.2
			c0.7-0.3,2-0.4,2.6-0.9c0.6-0.5,0.7-0.9,0.7-0.9s0.7-0.6,1.1-1.2c0.4-0.6,0.3-2.5,0-2.6c-0.3-0.1-2.9-0.5-3.1-0.5
			c-0.3,0-0.4-0.3-0.5-0.6c-0.3-1.4-1.4-1.8-3-2.2c-1-0.2-1.6-0.3-1.6-0.3c-0.2-0.8-1-0.8-2-0.5
			C193.8,479.8,192.2,480.6,192.2,480.8L192.2,480.8z M192.2,480.8"/>
	</g>
</g>
</svg>
